<?xml version="1.0" encoding="UTF-8" standalone="no"?>
<!-- Created with Inkscape (http://www.inkscape.org/) -->

<svg
   xmlns:dc="http://purl.org/dc/elements/1.1/"
   xmlns:cc="http://creativecommons.org/ns#"
   xmlns:rdf="http://www.w3.org/1999/02/22-rdf-syntax-ns#"
   xmlns:svg="http://www.w3.org/2000/svg"
   xmlns="http://www.w3.org/2000/svg"
   version="1.1"
   width="229.18449"
   height="77.865677"
   id="svg2"
   xml:space="preserve"><metadata
     id="metadata8"><rdf:RDF><cc:Work
         rdf:about=""><dc:format>image/svg+xml</dc:format><dc:type
           rdf:resource="http://purl.org/dc/dcmitype/StillImage" /><dc:title></dc:title></cc:Work></rdf:RDF></metadata><defs
     id="defs6" /><g
     transform="matrix(1.25,0,0,-1.25,-96.41245,885.30958)"
     id="g10"><g
       id="g4213"><path
         d="m 250.69434,662.2207 c -0.69141,1.08643 -1.93067,2.05957 -3.7168,2.73731 0,0 -33.04883,5.51806 -33.04883,5.51806 -1.79492,0.64161 -4.2207,3.07764 -6.27734,5.38868 -1.81153,-6.87989 -5.63086,-13.07666 -9.51172,-18.78418 2.0918,-0.43018 4.32422,-0.70264 6.66015,-0.83643 3.36719,-0.19141 6.95411,-0.0977 10.63672,0.21582 4.55664,0.38965 7.80078,-0.22803 11.57715,-0.94629 3.50879,-0.66699 7.46192,-1.41748 13.23828,-1.57275 4.96582,-0.1333 8.30176,1.22803 9.9209,3.04785 0.69922,0.78711 1.09766,1.6626 1.19043,2.55811 0.0937,0.90966 -0.12793,1.82519 -0.66894,2.67382 z"
         id="path422"
         style="fill:#231f20;fill-opacity:1;fill-rule:nonzero;stroke:none" /><path
         d="m 249.15137,661.23438 c -0.83594,1.31152 -2.88867,2.41992 -6.21289,2.76171 -2.7461,0.28223 -5.15625,0.4668 -7.40235,0.63868 -6.8457,0.52392 -12.16308,0.93115 -20.81836,3.61669 -2.80664,0.87061 -5.2832,3.00293 -7.66797,5.56641 -1.76367,-5.42383 -4.70019,-10.41699 -7.79882,-15.08301 1.78711,-0.32715 3.67968,-0.54248 5.65625,-0.65576 3.28515,-0.1875 6.78515,-0.0962 10.37695,0.20947 4.78906,0.4087 8.15332,-0.23095 12.07129,-0.97558 3.41308,-0.64942 7.25879,-1.37988 12.94629,-1.53272 4.37304,-0.11816 7.20703,0.96875 8.50195,2.42627 0.43359,0.48682 0.67871,1.00879 0.73242,1.52637 0.0527,0.50293 -0.0762,1.01758 -0.38476,1.50147 z"
         id="path424"
         style="fill:#ffffff;fill-opacity:1;fill-rule:nonzero;stroke:none" /><path
         d="m 185.33887,702.65625 c -1.14746,2.00635 -2.13282,3.0542 -3.22168,3.18457 -1.10254,0.13184 -2.06934,-0.62598 -3.14356,-2.23633 -0.40722,0.0146 -0.8164,0.0225 -1.23047,0.0229 -1.05468,2.09815 -1.97851,3.17041 -3.13086,3.17725 0,0 -0.004,0 -0.004,0 -1.21289,0.006 -2.33203,-1.2334 -3.79004,-3.76612 -0.23145,-0.0371 -0.46484,-0.0767 -0.69727,-0.11718 -1.81738,2.10986 -3.10839,3.08056 -4.2666,2.88476 -1.28125,-0.21679 -2.02929,-1.69629 -2.74511,-4.47607 0,0 0.1123,-0.0293 0.1123,-0.0293 -0.24414,-0.0703 -0.48633,-0.14209 -0.72852,-0.21533 0,0 0.17969,0.16064 0.17969,0.16064 -1.59863,1.80176 -2.83203,2.58399 -4.02734,2.22998 -1.56446,-0.46191 -2.64063,-3.21826 -2.81641,-4.68945 -0.34765,-0.13379 -0.69336,-0.26953 -1.03711,-0.40625 0,0 -0.56445,0.27881 -0.56445,0.27881 -1.99902,1.33789 -3.38281,1.80859 -4.43555,1.31641 -0.80859,-0.74073 -1.34863,-2.33545 -1.70703,-4.51319 -1.06641,-0.50146 -2.75976,3.48242 -5.34082,2.06543 -1.10644,-0.60693 -1.52637,-2.38232 -1.67578,-5.60058 0,0 0.007,-4.9e-4 0.007,-4.9e-4 -0.0293,-0.0156 -0.0576,-0.0312 -0.0869,-0.0459 -2.4541,1.25537 -4.03711,1.62695 -5.08301,0.94971 -1.00683,-0.65381 -1.28613,-2.09961 -1.13672,-4.48584 -0.0957,-0.0566 -0.1875,-0.11328 -0.28125,-0.16895 -2.41992,1.4375 -3.98437,1.9961 -5.05468,1.37842 -1.07324,-0.62207 -1.33789,-2.22803 -1.13379,-5.10156 -0.29102,-0.16309 -0.58496,-0.32715 -0.87988,-0.48975 -2.12305,1.21387 -3.55567,1.60889 -4.57813,1.06641 -1.04297,-0.5542 -1.43555,-1.90869 -1.46387,-4.18213 -0.16699,-0.0811 -0.33496,-0.1626 -0.50293,-0.24365 -2.13476,1.43847 -3.57422,2.04541 -4.63867,1.59716 -1.11133,-0.46728 -1.53125,-1.87255 -1.56445,-4.43359 -0.33789,-0.14697 -0.67774,-0.29443 -1.01758,-0.44092 -2.37305,1.48584 -3.94531,2.06348 -5.0625,1.60059 -1.17676,-0.48828 -1.61816,-1.89844 -1.67187,-4.36377 -0.13868,-0.0552 -0.27735,-0.10889 -0.41602,-0.1626 -2.09961,1.46973 -3.5293,2.12988 -4.60156,1.77149 -1.14844,-0.38477 -1.62403,-1.70167 -1.72266,-4.15137 -0.0605,-0.0225 -0.12109,-0.0439 -0.18164,-0.0664 -1.86719,1.52344 -3.19824,2.12207 -4.29199,1.72754 -1.10059,-0.39844 -1.70313,-1.69434 -2.1084,-3.95508 -0.14551,-0.0478 -0.28906,-0.0957 -0.43262,-0.14453 -1.96191,1.88818 -3.32519,2.76074 -4.4873,2.42481 -1.18164,-0.34278 -1.81446,-1.80811 -2.28028,-4.58643 -3.22558,-0.98486 -6.2998,-1.85889 -9.12402,-2.59912 0,0 -0.14258,-1.60547 -0.14258,-1.60547 16.05078,-7.36084 25.17969,-6.78564 36.72168,-5.61865 2.41504,0.11621 4.82129,0.36035 7.21778,0.70654 3.69726,0.31983 7.74414,0.5669 12.34765,0.56201 4.73047,-0.004 10.09571,-0.48486 15.66211,-0.98291 21.24414,-1.90136 45.35938,-4.06054 51.0293,18.35987 0.77148,3.04931 0.8457,6.10791 0.28808,9.10107 -0.57128,3.06641 -1.80371,6.05469 -3.62304,8.88916 -2.88965,4.5 -6.85156,7.14014 -11.43457,8.42334 0,0 0,0 0,0 z"
         id="path426"
         style="fill:#231f20;fill-opacity:1;fill-rule:nonzero;stroke:none" /><path
         d="m 123.11426,681.7041 c 0.0547,1.04834 0.21191,1.64795 0.52539,1.81348 0.33691,0.17871 0.98144,-9.8e-4 1.99121,-0.51904 -0.82129,-0.43409 -1.66113,-0.86622 -2.5166,-1.29444 0,0 0,0 0,0 z m -6.71387,-3.17431 c 0.0439,1.28662 0.19043,1.96484 0.49707,2.09521 0.34473,0.14355 1.05078,-0.16748 2.16895,-0.87744 -0.87696,-0.41065 -1.76758,-0.81641 -2.66602,-1.21777 0,0 0,0 0,0 z m -7.75684,-3.28174 c 0.0596,1.25683 0.23243,1.94873 0.59766,2.10058 0.42188,0.17383 1.21973,-0.1167 2.47656,-0.84179 -1.01757,-0.42627 -2.04297,-0.8462 -3.07422,-1.25879 0,0 0,0 0,0 z m -6.72949,-2.59229 c 0.0723,1.18164 0.23047,1.79444 0.52832,1.89356 0.35938,0.1206 1.05274,-0.19678 2.125,-0.89746 -0.88476,-0.33741 -1.76855,-0.66944 -2.65332,-0.9961 0,0 0,0 0,0 z m -6.45508,-2.29834 c 0.2295,1.02588 0.48731,1.59571 0.8252,1.71875 0.34766,0.125 0.93555,-0.14453 1.81738,-0.79883 -0.88379,-0.31298 -1.76562,-0.61914 -2.64258,-0.91992 0,0 0,0 0,0 z m -7.23339,-2.37109 c 0.28125,1.49951 0.56054,2.27295 0.92578,2.37793 0.37597,0.10888 1.07617,-0.37256 2.17187,-1.38867 -1.04297,-0.33936 -2.07617,-0.66895 -3.09765,-0.98926 0,0 0,0 0,0 z m 54.60546,24.87012 c 0.125,1.92187 0.33204,2.95019 0.73047,3.16992 0.36524,0.1997 1.22266,-0.31153 2.67969,-1.44873 -1.16992,-0.57032 -2.30859,-1.14698 -3.41016,-1.72119 0,0 0,0 0,0 z m -6.39843,-3.5293 c -0.0332,1.17578 0.0791,1.85693 0.39843,2.06494 0.34961,0.22607 1.09571,0.0425 2.32032,-0.51758 -0.94922,-0.52783 -1.85742,-1.04541 -2.71875,-1.54736 0,0 0,0 0,0 z m -6.48242,-3.92578 c -0.0898,1.61377 -0.002,2.47656 0.33789,2.67431 0.34961,0.20166 1.17773,-0.12793 2.54687,-0.9082 -0.25293,-0.15674 -0.5,-0.31152 -0.74023,-0.46143 -0.69336,-0.43603 -1.41016,-0.87158 -2.14453,-1.30468 0,0 0,0 0,0 z m 51.00585,18.06738 c 0.38477,0.47998 0.69825,0.70654 0.9629,0.6748 0.30761,-0.0366 0.6621,-0.35498 1.09179,-0.95898 -0.67383,0.12012 -1.35937,0.21338 -2.05469,0.28418 0,0 0,0 0,0 z m -7.97558,-0.12793 c 0.7334,1.17969 1.24707,1.75928 1.62598,1.75732 0,0 -0.004,0 -0.004,0 0.32812,-0.002 0.72851,-0.51318 1.25976,-1.51611 -0.95019,-0.0469 -1.9121,-0.1289 -2.88183,-0.24121 0,0 0,0 0,0 z m -15.21973,-3.8291 c 0.50879,1.43262 0.9336,2.19678 1.36621,2.32422 0.3711,0.10937 0.9541,-0.31104 1.82032,-1.23145 -1.06739,-0.34326 -2.12989,-0.70898 -3.18653,-1.09277 0,0 0,0 0,0 z m 7.24512,2.28223 c 0.41894,1.48193 0.76269,2.25781 1.13379,2.31982 0.38867,0.0654 1.03808,-0.45606 2.04199,-1.56641 -1.05371,-0.22216 -2.11426,-0.47509 -3.17578,-0.75341 0,0 0,0 0,0 z m -15.1875,-5.53223 c 0.13184,1.28125 0.33984,1.99609 0.69531,2.1626 0.37598,0.17529 1.10547,-0.12012 2.27442,-0.86475 -1.00196,-0.42187 -1.99414,-0.85596 -2.96973,-1.29785 0,0 0,0 0,0 z"
         id="path428"
         style="fill:#ffffff;fill-opacity:1;fill-rule:nonzero;stroke:none" /><path
         d="m 179.52051,701.85986 c 0,0 0.27929,-0.16406 0.27929,-0.16406 0.0283,0.0483 0.0557,0.0942 0.082,0.14014 1.49316,-0.10498 2.93945,-0.32178 4.32617,-0.66455 0.0332,-0.0625 0.0664,-0.125 0.0996,-0.18799 0,0 0.20703,0.1084 0.20703,0.1084 4.36523,-1.14698 8.12109,-3.57862 10.81836,-7.77832 1.70605,-2.65479 2.85742,-5.43897 3.38672,-8.27979 0.51172,-2.74951 0.44238,-5.56348 -0.26758,-8.37402 -0.59375,-2.35108 -1.41699,-4.41065 -2.4336,-6.2168 -14.48632,7.03565 -30.77148,1.92822 -48.06738,-3.49609 -8.8291,-2.76856 -17.92676,-5.62158 -27.13965,-6.94824 -1.98339,-0.17139 -3.86328,-0.36329 -5.67382,-0.54932 -0.45508,-0.0459 -0.9043,-0.0918 -1.35157,-0.13721 -0.45117,-0.022 -0.90429,-0.04 -1.35742,-0.0527 0,0 0.004,-0.0825 0.004,-0.0825 -10.17188,-0.99512 -18.65625,-1.27735 -32.39063,4.62012 8.51856,2.33886 18.87403,5.72705 28.80957,9.69482 8.92383,3.56348 17.51758,7.59863 24.14942,11.7666 8.27636,5.20117 25.11523,14.53418 39.89062,16.34717 1.28028,0.15723 2.54492,0.25732 3.78809,0.29199 0.005,-0.0103 0.009,-0.02 0.0137,-0.0303 0,0 0.0732,0.0322 0.0732,0.0322 0.93164,0.0244 1.84961,0.0122 2.75391,-0.0395 0,0 0,0 0,0 z"
         id="path430"
         style="fill:#ffffff;fill-opacity:1;fill-rule:nonzero;stroke:none" /><path
         d="m 148.90918,665.45605 c 0.26172,-0.88671 0.72168,-2.14697 1.28516,-3.34179 0.34179,-0.72754 1.01953,-1.8374 1.66308,-2.76514 -0.8789,0.0767 -1.75586,0.15527 -2.62597,0.23291 -5.59864,0.50147 -10.99415,0.98438 -15.81836,0.98975 -0.39454,0 -0.78321,-10e-4 -1.16797,-0.005 5.48437,1.38379 10.89648,3.08105 16.21289,4.74853 0.15039,0.0474 0.30078,0.0947 0.45117,0.14111 0,0 0,0 0,0 z"
         id="path432"
         style="fill:#ffffff;fill-opacity:1;fill-rule:nonzero;stroke:none" /><path
         d="m 156.35449,667.74805 c 0.29297,-1.35205 0.79785,-2.84522 1.44531,-4.23389 0.64258,-1.37695 1.95118,-3.5 3.04688,-4.83301 -2.62012,0.14112 -5.25586,0.34619 -7.86914,0.57129 -0.70215,0.9375 -1.61328,2.37793 -2.01172,3.2251 -0.55566,1.18164 -1.00391,2.4082 -1.24609,3.2334 2.23047,0.69824 4.44238,1.38672 6.63476,2.03711 0,0 0,0 0,0 z"
         id="path434"
         style="fill:#ffffff;fill-opacity:1;fill-rule:nonzero;stroke:none" /><path
         d="m 166.0918,670.34912 c 0.22754,-1.63672 0.81347,-3.41455 1.51074,-5.06885 0.98633,-2.34619 2.52637,-5.15136 3.45898,-6.71435 -2.92871,-0.1294 -5.95507,-0.0859 -9.01367,0.0557 -1.08008,1.05811 -2.74414,3.69483 -3.47168,5.25342 -0.63183,1.35596 -1.12207,2.81152 -1.40137,4.11719 3.01465,0.88379 5.98829,1.69189 8.917,2.35693 0,0 0,0 0,0 z"
         id="path436"
         style="fill:#ffffff;fill-opacity:1;fill-rule:nonzero;stroke:none" /><path
         d="m 180.96777,659.87354 c -0.67968,0.6958 -2.10742,3.09619 -3.30078,6.02783 -0.78125,1.91943 -1.4375,4.04931 -1.67969,6.06103 6.70508,0.57862 13.11036,-0.10742 19.12403,-2.98584 -3.32324,-4.90918 -8.28809,-7.66162 -14.14356,-9.10302 0,0 0,0 0,0 z"
         id="path438"
         style="fill:#ffffff;fill-opacity:1;fill-rule:nonzero;stroke:none" /><path
         d="m 175.13281,671.88281 c 0.25196,-2.10107 0.93164,-4.31592 1.74121,-6.30371 1.04395,-2.56299 2.3418,-4.77344 3.23243,-5.90674 -2.57618,-0.57031 -5.31641,-0.90136 -8.15528,-1.06201 -0.73926,1.22998 -2.46582,4.40039 -3.55957,7.00098 -0.68164,1.61865 -1.25195,3.35205 -1.46094,4.92431 2.77735,0.60499 5.51368,1.07422 8.20215,1.34717 0,0 0,0 0,0 z"
         id="path440"
         style="fill:#ffffff;fill-opacity:1;fill-rule:nonzero;stroke:none" /><path
         d="m 159.63965,677.78174 c 1.25781,-7.13233 -5.8086,-14.28418 -5.62695,-20.96143 2.05273,-0.11084 3.625,1.35596 4.12695,1.44483 -0.34375,-0.061 -0.69824,-1.80127 -0.89551,-3.76319 1.5332,0.16407 3.24512,1.94239 3.62207,2.0083 0.12012,-1.12939 -0.41211,-2.82129 -0.28223,-3.32568 12.32422,5.76563 18.32129,19.05225 18.01856,23.33154 0,0 -18.96289,1.26563 -18.96289,1.26563 0,0 0,0 0,0 z"
         id="path442"
         style="fill:#ffffff;fill-opacity:1;fill-rule:evenodd;stroke:none" /><path
         d="m 166.4834,657.91553 c -2.10938,0.42236 -4.1543,1.15527 -5.95313,2.26513 -1.49414,0.92286 -2.82031,2.10645 -3.87207,3.5918 0.30371,0.70313 0.62696,1.4126 0.9502,2.12354 2.63086,5.77588 4.04297,9.20459 1.62109,15.07861 0.39258,-4.15967 -0.19336,-8.31836 -3.17676,-14.37109 -1.50488,-3.30372 -2.98535,-6.55469 -2.89746,-9.80909 0,0 0.0215,-0.78515 0.0215,-0.78515 1.25976,-0.0674 2.28515,-0.0308 3.47656,0.50537 -0.17285,-0.98535 -0.26562,-1.98145 -0.36523,-2.97705 1.19726,0.18847 1.86523,0.45459 3.5957,1.23633 -0.16797,-1.04053 -0.13477,-1.76954 0.12891,-2.80079 5.375,2.51465 9.69335,5.87061 13.32812,10.57569 4.32813,5.60644 6.49609,10.46094 5.76758,17.30762 -1.17285,-5.50586 -2.24902,-10.41602 -7.1211,-16.26416 -1.53222,-1.98291 -3.36718,-3.93409 -5.5039,-5.67676 0,0 0,0 0,0 z"
         id="path444"
         style="fill:#231f20;fill-opacity:1;fill-rule:nonzero;stroke:none" /><path
         d="m 156.09082,662.39844 c 1.06934,-1.34033 2.34961,-2.43311 3.76465,-3.30664 1.62988,-1.00635 3.43848,-1.72266 5.31152,-2.19287 0,0 -3.57617,-2.25391 -3.57617,-2.25391 0,0 0.0293,2.87012 0.0293,2.87012 0,0 -3.3584,-1.74707 -3.3584,-1.74707 0,0 -0.26758,3.34375 -0.26758,3.34375 0,0 -3.10254,-1.37696 -3.10254,-1.37696 0,0 1.19922,4.66358 1.19922,4.66358 0,0 0,0 0,0 z"
         id="path446"
         style="fill:#ffffff;fill-opacity:1;fill-rule:nonzero;stroke:none" /><path
         d="m 116.47168,671.53271 c 0.18652,-7.23925 -7.86133,-13.26562 -8.6709,-19.8955 2.0127,-0.41358 3.78613,0.80371 4.29395,0.81689 -0.34766,-0.008 -0.95606,-1.67773 -1.44239,-3.58887 1.54004,-0.064 3.49707,1.44092 3.87989,1.4502 -0.0488,-1.13574 -0.82618,-2.72949 -0.77344,-3.24805 13.04394,3.875 20.94336,16.12744 21.2793,20.4043 0,0 -18.56641,4.06103 -18.56641,4.06103 0,0 0,0 0,0 z"
         id="path448"
         style="fill:#ffffff;fill-opacity:1;fill-rule:evenodd;stroke:none" /><path
         d="m 120.2959,650.87207 c -2.02442,0.72998 -3.9375,1.7583 -5.55274,3.12305 -1.34082,1.13379 -2.47656,2.50146 -3.29687,4.12549 0.40527,0.65087 0.8291,1.30322 1.25488,1.95898 3.45606,5.32227 5.36231,8.50391 3.83789,14.67187 -0.22949,-4.17187 -1.4248,-8.19726 -5.27246,-13.74169 -1.97656,-3.04395 -3.92285,-6.03956 -4.31836,-9.271 0,0 -0.0947,-0.78027 -0.0947,-0.78027 1.23535,-0.25293 2.25488,-0.36914 3.51171,-0.0151 -0.31543,-0.9502 -0.55566,-1.91992 -0.80175,-2.89063 1.21289,0.01 1.91211,0.17383 3.73828,0.68897 -0.31836,-1.00244 -0.39356,-1.72998 -0.28711,-2.78662 5.69043,1.68896 10.45703,4.36816 14.74805,8.48388 5.11328,4.90235 7.97558,9.38135 8.26953,16.26075 -1.97461,-5.27198 -3.76758,-9.96778 -9.45313,-15.0293 -1.80859,-1.73437 -3.91211,-3.3916 -6.2832,-4.79834 0,0 0,0 0,0 z"
         id="path450"
         style="fill:#231f20;fill-opacity:1;fill-rule:nonzero;stroke:none" /><path
         d="m 110.68164,656.84521 c 0.8584,-1.48388 1.96289,-2.75488 3.2334,-3.82861 1.46289,-1.23633 3.14453,-2.21289 4.92773,-2.95556 0,0 -3.87011,-1.69776 -3.87011,-1.69776 0,0 0.4541,2.83399 0.4541,2.83399 0,0 -3.58008,-1.23047 -3.58008,-1.23047 0,0 0.23047,3.3457 0.23047,3.3457 0,0 -3.27246,-0.90137 -3.27246,-0.90137 0,0 1.87695,4.43408 1.87695,4.43408 0,0 0,0 0,0 z"
         id="path452"
         style="fill:#ffffff;fill-opacity:1;fill-rule:nonzero;stroke:none" /><path
         d="m 225.20996,667.58936 c -0.36719,0.0615 -0.73828,0.12646 -1.11133,0.1958 0,0 0,0 0,0"
         id="path454"
         style="fill:#231f20;fill-opacity:1;fill-rule:nonzero;stroke:none" /><path
         d="m 239.27832,666.18164 c -0.0225,10e-4 -0.0449,0.003 -0.0645,0.005"
         id="path456"
         style="fill:#231f20;fill-opacity:1;fill-rule:nonzero;stroke:none" /><path
         d="m 155.58887,695.26904 c -1.375,-0.33789 -2.32617,-1.31396 -2.13477,-2.21142 0.19922,-0.92383 1.53516,-1.42481 2.97363,-1.11426 0.62012,0.13281 1.15918,0.39502 1.55762,0.72461 -0.0391,-0.0107 -0.0772,-0.0181 -0.11719,-0.0269 -1.43945,-0.31054 -2.77343,0.19043 -2.97265,1.11377 -0.11328,0.52637 0.16601,1.07813 0.69336,1.51416 0,0 0,0 0,0 z m -26.91602,-16.68652 c -1.70996,-0.6958 -2.74023,-2.15869 -2.29492,-3.25781 0.44727,-1.09717 2.20605,-1.42578 3.91797,-0.72901 0.36523,0.14844 0.69824,0.33106 0.99414,0.53809 -1.56055,-0.47412 -3.06348,-0.11328 -3.4707,0.88916 -0.35157,0.86377 0.21093,1.95264 1.2998,2.71728 -0.14941,-0.0454 -0.29687,-0.0977 -0.44629,-0.15771 0,0 0,0 0,0 z m 11.73633,0.5835 c -2.05859,-0.67481 -3.38477,-2.29883 -2.95508,-3.62256 0.43067,-1.32666 2.46778,-1.86182 4.53516,-1.19092 0.54297,0.17578 1.03515,0.41748 1.45898,0.70361 -0.006,-0.002 -0.0117,-0.005 -0.0186,-0.006 -2.06739,-0.67138 -4.10547,-0.13623 -4.53614,1.19141 -0.3164,0.97949 0.32618,2.12207 1.51563,2.92432 0,0 0,0 0,0 z m -2.31738,7.36377 c -1.81348,-1.19776 -2.66504,-3.12452 -1.89746,-4.28858 0.76953,-1.16406 2.87695,-1.13672 4.68945,0.061 0.002,0.002 0.006,0.004 0.008,0.005 -1.3789,-0.44043 -2.68555,-0.23242 -3.25586,0.63086 -0.76758,1.16308 0.0801,3.08496 1.88867,4.28369 -0.47851,-0.15332 -0.96484,-0.38428 -1.43261,-0.69238 0,0 0,0 0,0 z m 10.16797,2.90966 c -1.81446,-1.19824 -2.66602,-3.12451 -1.89747,-4.28906 0.76758,-1.16406 2.875,-1.13672 4.68946,0.062 0.002,9.8e-4 0.004,0.003 0.007,0.004 -1.37793,-0.44092 -2.68554,-0.23242 -3.25683,0.63134 -0.76758,1.16309 0.0811,3.08497 1.88867,4.28321 -0.47656,-0.15283 -0.96387,-0.3833 -1.43066,-0.6919 0,0 0,0 0,0 z m 3.25683,-8.61718 c -2.03711,-0.75538 -3.30469,-2.43848 -2.82031,-3.74659 0.48437,-1.3081 2.54297,-1.75927 4.58203,-1.0039 0.44922,0.16845 0.86328,0.37939 1.22852,0.62353 -1.96778,-0.64941 -3.90235,-0.18457 -4.36914,1.07764 -0.37793,1.01953 0.30664,2.26514 1.58984,3.12305 -0.0703,-0.0234 -0.14063,-0.0474 -0.21094,-0.0737 0,0 0,0 0,0 z m 6.80274,8.74707 c -1.58301,-0.4795 -2.66407,-1.56641 -2.54688,-2.70313 0.14453,-1.38721 2.02539,-2.33545 4.1875,-2.11133 1.00781,0.1045 1.90234,0.44483 2.55664,0.91992 -0.35058,-0.10498 -0.72461,-0.18164 -1.11621,-0.22167 -2.16211,-0.22461 -4.04199,0.72363 -4.18652,2.11083 -0.0771,0.7417 0.35547,1.46192 1.10547,2.00538 0,0 0,0 0,0 z m 6.99804,7.01513 c -1.58203,-0.47998 -2.66504,-1.5664 -2.54687,-2.70312 0.14258,-1.3877 2.02539,-2.33643 4.1875,-2.11182 1.00683,0.10449 1.90234,0.4458 2.55664,0.92041 -0.35156,-0.10596 -0.72461,-0.18164 -1.11621,-0.22265 -2.16309,-0.22413 -4.04395,0.72363 -4.1875,2.11132 -0.0771,0.74121 0.35644,1.46192 1.10644,2.00586 0,0 0,0 0,0 z m 5.07422,-6.67334 c -1.66406,-0.53564 -2.80469,-1.66211 -2.75097,-2.90869 0.0713,-1.66748 2.24902,-2.93603 4.84765,-2.82471 1.29004,0.0547 2.44727,0.43995 3.27637,1.01856 -0.56055,-0.18018 -1.18164,-0.29346 -1.83594,-0.3208 -2.59766,-0.11182 -4.77539,1.15674 -4.84766,2.82519 -0.0352,0.83936 0.46875,1.62354 1.31055,2.21045 0,0 0,0 0,0 z m 6.33887,8.91748 c -1.80957,-0.59814 -3.0293,-1.86572 -2.89063,-3.18847 0.17481,-1.65918 2.42481,-2.79248 5.0127,-2.52149 1.14062,0.11963 2.16016,0.49268 2.92969,1.01416 -0.46289,-0.15234 -0.96289,-0.26074 -1.48926,-0.31689 -2.58692,-0.27051 -4.83887,0.86181 -5.0127,2.52197 -0.0977,0.92774 0.47461,1.8291 1.4502,2.49072 0,0 0,0 0,0 z M 92.03711,666.90674 c -1.47168,-0.40967 -2.48242,-1.42578 -2.33887,-2.44531 0.16602,-1.16455 1.78125,-1.90577 3.59571,-1.64893 0.83203,0.11768 1.56445,0.42529 2.0996,0.83496 -0.21093,-0.0586 -0.43164,-0.10449 -0.6582,-0.13721 -1.8164,-0.25732 -3.43066,0.48389 -3.5957,1.64844 -0.08985,0.63184 0.26562,1.26172 0.89746,1.74805 0,0 0,0 0,0 z m 9.47754,2.25244 c -1.23926,-0.27783 -2.11719,-1.10645 -2,-1.93652 0.1289,-0.89942 1.37305,-1.4712 2.77539,-1.27246 0.71289,0.10107 1.33301,0.3833 1.75195,0.75585 -0.10156,-0.0229 -0.20605,-0.0435 -0.31152,-0.0576 -1.40137,-0.19922 -2.64746,0.37304 -2.77442,1.27148 -0.0625,0.44043 0.15625,0.88086 0.5586,1.23926 0,0 0,0 0,0 z m 7.32324,2.70215 c -1.91016,-0.77588 -3.05957,-2.40869 -2.5625,-3.63526 0.49902,-1.22412 2.46191,-1.59033 4.37207,-0.81298 0.37598,0.15283 0.72266,0.33886 1.0332,0.54834 -1.77539,-0.57178 -3.50097,-0.1753 -3.96484,0.9624 -0.39941,0.98388 0.26172,2.23047 1.52734,3.08545 -0.13574,-0.0435 -0.2705,-0.0923 -0.40527,-0.14795 0,0 0,0 0,0 z"
         id="path458"
         style="fill:#231f20;fill-opacity:1;fill-rule:evenodd;stroke:none" /><path
         d="m 208.58496,674.1377 c 0.043,-1.34571 0.14844,-2.59864 0.33496,-3.53711 0.21582,-1.08985 0.60645,-1.84913 1.22168,-2.07764 0,0 0.39063,-0.0523 0.39063,-0.0523 0.52539,0.0391 1.16406,0.44385 1.85937,1.12159 0.56641,0.55224 1.21289,1.29785 1.89063,2.17285 0.55078,-0.22803 1.10547,-0.45655 1.66113,-0.68457 -0.32129,-1.15284 -0.56641,-2.21924 -0.67676,-3.05274 -0.14453,-1.09424 -0.0391,-1.94092 0.42383,-2.36816 0,0 0.34668,-0.20362 0.34668,-0.20362 0.61035,-0.1875 1.57617,0.11475 2.7373,0.77247 0.96485,0.54785 2.15821,1.36474 3.43457,2.34423 0.1709,-0.0664 0.34082,-0.13232 0.51075,-0.19873 -0.19532,-0.81445 -0.33301,-1.55078 -0.38868,-2.14648 -0.0859,-0.91992 0.0439,-1.63135 0.46485,-2.021 0,0 0.34765,-0.20263 0.34765,-0.20263 0.55665,-0.17188 1.39063,0.0566 2.38965,0.58447 0.7666,0.40674 1.69336,1.00098 2.69629,1.72461 0.35547,-0.1294 0.71094,-0.25586 1.06641,-0.38037 -0.34082,-1.17676 -0.61133,-2.28955 -0.75195,-3.19043 -0.18946,-1.23047 -0.10743,-2.18506 0.38476,-2.64014 0,0 0.34766,-0.20361 0.34766,-0.20361 0.67187,-0.20703 1.81836,0.20801 3.19726,1.04736 1.08203,0.65576 2.38282,1.58643 3.74121,2.66992 -0.26464,-1.52978 -0.46191,-3.04443 -0.5205,-4.25 -0.0742,-1.54883 0.13379,-2.72656 0.77734,-3.13574 0,0 0.37793,-0.13379 0.37793,-0.13379 0.74902,-0.0933 1.9873,0.6333 3.41699,1.86621 1.10938,0.95703 2.4082,2.24268 3.71192,3.67725 0.31054,-0.0654 0.62011,-0.13037 0.9248,-0.19092 1.52734,-0.3042 2.93945,-0.44775 4.23633,-0.45019 3.24609,-0.006 5.80078,0.85791 7.65918,2.25634 0,0 -9.8e-4,-0.003 -9.8e-4,-0.003 1.89258,1.42481 3.05469,3.39453 3.48633,5.56153 0.12695,0.63574 0.19141,1.2832 0.19336,1.93896 0.004,1.80127 -0.57422,3.52881 -1.54492,5.07861 -1.23633,1.97022 -3.11133,3.66456 -5.22461,4.86182 -2.11719,1.19971 -4.49512,1.91065 -6.73047,1.91553 -1.48047,0.003 -2.89746,-0.30078 -4.14453,-0.97168 -0.32031,0.13525 -0.61133,0.25391 -0.9375,0.38867 -5.17188,2.12451 -18.24024,7.49219 -20.28906,13.63086 -1.18848,5.39258 -4.44141,9.12939 -8.5879,11.06543 -2.68359,1.25244 -5.73632,1.74414 -8.83789,1.4375 -3.08593,-0.30615 -6.22461,-1.40234 -9.09375,-3.32617 -5.64648,-3.78711 -10.26171,-10.78321 -11.38574,-21.26905 0,0 -0.10058,-0.93457 -0.10058,-0.93457 0,0 0.93652,-0.0776 0.93652,-0.0776 4.91406,-0.40723 13.74609,-4.10254 23.89551,-8.35059 0.0508,-0.022 0.10156,-0.042 0.15234,-0.0635 0,0 0,0 0,0 z"
         id="path460"
         style="fill:#231f20;fill-opacity:1;fill-rule:nonzero;stroke:none" /><path
         d="m 185.62988,684.26953 c 1.2168,9.3794 5.40332,15.63965 10.48047,19.04492 2.61133,1.75049 5.45508,2.74707 8.24707,3.02295 2.77637,0.2749 5.50098,-0.16162 7.88574,-1.2749 3.66895,-1.7124 6.54688,-5.04297 7.58985,-9.8667 0,0 0.0234,-0.0957 0.0234,-0.0957 2.29492,-6.9502 15.94238,-12.55567 21.34179,-14.77393 0.6211,-0.2539 1.14649,-0.4707 1.33985,-0.55322 0,0 0.44336,-0.18945 0.44336,-0.18945 0,0 0.40429,0.2539 0.40429,0.2539 1.04102,0.65137 2.27539,0.94336 3.58203,0.93994 1.91016,-0.004 3.97071,-0.62988 5.83203,-1.68457 1.86524,-1.05615 3.50977,-2.53271 4.57618,-4.23681 0.79882,-1.27246 1.27343,-2.66797 1.26953,-4.09619 0,-0.54053 -0.0527,-1.07178 -0.15625,-1.58643 -0.34571,-1.73779 -1.27539,-3.31543 -2.79297,-4.45605 0,0 -0.002,-0.004 -0.002,-0.004 -1.55176,-1.16699 -3.73047,-1.88916 -6.5459,-1.8833 -1.18653,0.002 -2.48145,0.13232 -3.88574,0.4126 -0.53321,0.10693 -1.07032,0.22021 -1.60938,0.34033 0,0 -0.22559,0.1958 -0.22559,0.1958 -0.0351,-0.0405 -0.0693,-0.0801 -0.10449,-0.12012 -10.83398,2.46338 -23.26562,7.66651 -34.17969,12.23389 -9.69628,4.05713 -18.20507,7.6167 -23.51367,8.37695 0,0 0,0 0,0 z"
         id="path462"
         style="fill:#ffffff;fill-opacity:1;fill-rule:nonzero;stroke:none" /><path
         d="m 220.20215,669.36182 c -0.86133,-0.62696 -1.6582,-1.15332 -2.33496,-1.53614 -0.35059,-0.20019 -0.64356,-0.35742 -0.86035,-0.46386 0.0264,0.11181 0.0547,0.25341 0.0762,0.42187 0.0937,0.70996 0.29883,1.61475 0.5664,2.60205 0.84766,-0.34326 1.69922,-0.68457 2.55274,-1.02392 0,0 0,0 0,0 z"
         id="path464"
         style="fill:#ffffff;fill-opacity:1;fill-rule:nonzero;stroke:none" /><path
         d="m 226.12207,667.08301 c -0.53516,-0.35596 -1.02344,-0.65235 -1.44824,-0.87696 -0.20801,-0.11035 -0.38574,-0.20166 -0.53223,-0.27343 0.006,0.0356 0.0127,0.0762 0.0156,0.12011 0.043,0.45411 0.1455,1.021 0.29101,1.6587 0.5586,-0.21192 1.11524,-0.42237 1.67383,-0.62842 0,0 0,0 0,0 z"
         id="path466"
         style="fill:#ffffff;fill-opacity:1;fill-rule:nonzero;stroke:none" /><path
         d="m 241.91113,662.10938 c -1.00976,-1.07178 -1.99023,-2.02344 -2.8457,-2.76124 -0.68555,-0.59082 -1.24023,-1.03271 -1.59766,-1.26074 0.0117,0.26026 0.0312,0.67334 0.0547,1.18653 0.0547,1.08349 0.23047,2.45654 0.46875,3.86523 1.32227,-0.375 2.63086,-0.7207 3.91992,-1.02978 0,0 0,0 0,0 z"
         id="path468"
         style="fill:#ffffff;fill-opacity:1;fill-rule:nonzero;stroke:none" /><path
         d="m 234.11816,664.30811 c -0.94531,-0.71875 -1.83203,-1.33399 -2.5957,-1.79737 -0.54883,-0.33301 -0.99219,-0.58447 -1.29101,-0.72803 0.0332,0.16749 0.0791,0.39502 0.12304,0.67627 0.12305,0.78663 0.36524,1.78711 0.67578,2.86963 1.03516,-0.35205 2.06446,-0.69433 3.08789,-1.0205 0,0 0,0 0,0 z"
         id="path470"
         style="fill:#ffffff;fill-opacity:1;fill-rule:nonzero;stroke:none" /><path
         d="m 212.51367,672.49658 c -0.52344,-0.65527 -1.00097,-1.1997 -1.40527,-1.59424 -0.13184,-0.12695 -0.24707,-0.23828 -0.3457,-0.32763 -0.004,0.10205 -0.0156,0.229 -0.0449,0.37842 -0.125,0.62792 -0.20898,1.46289 -0.25976,2.40087 0.67969,-0.28466 1.36621,-0.57177 2.05566,-0.85742 0,0 0,0 0,0 z"
         id="path472"
         style="fill:#ffffff;fill-opacity:1;fill-rule:nonzero;stroke:none" /><path
         d="m 255.9873,671.88672 c -0.44531,1.03955 -2.24609,4.8125 -4.24707,5.99902 -2.10644,1.24707 -4.38281,-0.3706 -0.0898,-2.66455 0,0 2.1084,-1.12646 2.1084,-1.12646 0,0 2.22851,-2.20801 2.22851,-2.20801 0,0 0,0 0,0 z"
         id="path474"
         style="fill:#231f20;fill-opacity:1;fill-rule:evenodd;stroke:none" /><path
         d="m 207.99512,704.98096 c -1.74512,-0.76026 -3.28907,-2.0293 -4.38477,-3.75147 -2.92676,-4.60107 -1.56055,-10.74072 3.04102,-13.66748 2.30078,-1.46387 4.98633,-1.85303 7.46093,-1.30224 2.26465,0.5039 4.35157,1.79394 5.8125,3.76855 0,0 -8.69726,12.93457 -8.69726,12.93457 0,0 -0.96875,-1.7041 -0.96875,-1.7041 0,0 -2.26367,3.72217 -2.26367,3.72217 0,0 0,0 0,0 z"
         id="path476"
         style="fill:#231f20;fill-opacity:1;fill-rule:nonzero;stroke:none" /><path
         d="m 217.87988,691.1333 c -1.11133,-1.63232 -2.7705,-2.69482 -4.57617,-3.09668 -1.87891,-0.41699 -3.91406,-0.12158 -5.6582,0.98682 -3.48828,2.21924 -4.52539,6.87451 -2.30664,10.36377 0.85254,1.33935 2.0625,2.3164 3.42773,2.8872 0,0 1.47266,-2.42285 1.47266,-2.42285 0,0 0.81445,1.4336 0.81445,1.4336 0,0 6.82617,-10.15186 6.82617,-10.15186 0,0 0,0 0,0 z"
         id="path478"
         style="fill:#f47216;fill-opacity:1;fill-rule:nonzero;stroke:none" /><path
         d="m 208.55176,702.62744 c -1.41797,-0.60547 -2.67188,-1.62646 -3.5586,-3.02002 -2.33984,-3.67871 -1.24804,-8.58935 2.43164,-10.92871 3.56348,-2.2666 8.28028,-1.31348 10.69922,2.08984 0,0 -7.07031,10.51661 -7.07031,10.51661 0,0 -0.81445,-1.4336 -0.81445,-1.4336 0,0 -1.6875,2.77588 -1.6875,2.77588 0,0 0,0 0,0 z"
         id="path480"
         style="fill:#ffffff;fill-opacity:1;fill-rule:evenodd;stroke:none" /><path
         d="m 214.10254,694.21387 c 0.375,0.58935 0.65039,1.21142 0.84961,1.82666 0,0 -2.51367,3.73779 -2.51367,3.73779 -0.99317,-0.60644 -2.06055,-1.49512 -2.83106,-2.70508 -1.80762,-2.84277 -1.34961,-6.39013 -1.03418,-6.58984 0.31446,-0.20069 3.72266,0.88818 5.5293,3.73047 0,0 0,0 0,0 z"
         id="path482"
         style="fill:#231f20;fill-opacity:1;fill-rule:evenodd;stroke:none" /><path
         d="m 214.49707,696.16504 c -0.4707,-0.15625 -0.89453,-0.46826 -1.17969,-0.91748 -0.6582,-1.03516 -0.35156,-2.41748 0.68555,-3.07666 0.94531,-0.60108 2.17871,-0.39649 2.88867,0.43262 0,0 -2.39453,3.56152 -2.39453,3.56152 0,0 0,0 0,0 z"
         id="path484"
         style="fill:#ffffff;fill-opacity:1;fill-rule:evenodd;stroke:none" /><path
         d="m 204.97656,678.98584 c -1.35644,1.60889 -2.71972,3.22754 -4.1416,4.70117 -2.80762,2.90967 -5.27734,4.67334 -7.42285,5.49903 -2.03906,0.78466 -3.80957,0.74755 -5.31934,0.0508 -1.48242,-0.68457 -2.66601,-1.99366 -3.57031,-3.77491 -1.27148,-2.50586 -1.99609,-5.9873 -2.22266,-9.9624 -0.0644,-1.11133 -0.0498,-2.17041 0.0361,-3.18115 0.4707,-5.5249 3.10156,-9.39258 7.16894,-11.96777 2.42383,-1.53565 5.35547,-2.59668 8.63477,-3.27002 3.88086,5.70752 7.70019,11.90429 9.51172,18.78418 -1.02539,1.1499 -1.95703,2.27002 -2.67481,3.12109 z"
         id="path486"
         style="fill:#231f20;fill-opacity:1;fill-rule:nonzero;stroke:none" /><path
         d="m 203.78418,677.80811 c -1.34961,1.58544 -2.70898,3.18115 -4.09961,4.60644 -2.63769,2.7041 -4.90918,4.32471 -6.83691,5.05859 -1.55469,0.5918 -2.85938,0.58448 -3.93164,0.0947 -1.09864,-0.50195 -2.00782,-1.52099 -2.73145,-2.93066 -1.16504,-2.27246 -1.83496,-5.50733 -2.05078,-9.24463 -0.0586,-1.0332 -0.0469,-2.00586 0.0312,-2.92041 0.42187,-4.8877 2.76562,-8.30518 6.39062,-10.57471 2.43164,-1.52392 5.44922,-2.54541 8.85938,-3.1626 3.13086,4.66602 6.09863,9.65918 7.88281,15.08301 -1.18555,1.2583 -2.34668,2.62012 -3.51367,3.99024 z"
         id="path488"
         style="fill:#ffffff;fill-opacity:1;fill-rule:nonzero;stroke:none" /></g></g></svg>