<?xml version="1.0" encoding="UTF-8" standalone="no"?>
<!-- Created with Inkscape (http://www.inkscape.org/) -->

<svg
   xmlns:dc="http://purl.org/dc/elements/1.1/"
   xmlns:cc="http://creativecommons.org/ns#"
   xmlns:rdf="http://www.w3.org/1999/02/22-rdf-syntax-ns#"
   xmlns:svg="http://www.w3.org/2000/svg"
   xmlns="http://www.w3.org/2000/svg"
   xmlns:sodipodi="http://sodipodi.sourceforge.net/DTD/sodipodi-0.dtd"
   xmlns:inkscape="http://www.inkscape.org/namespaces/inkscape"
   version="1.1"
   width="306.41095"
   height="124.05951"
   id="svg2"
   xml:space="preserve"
   inkscape:version="0.48.4 r9939"
   sodipodi:docname="colored_alligator.svg"
   inkscape:export-filename="/home/vincent/Projekte/lambda-alligatoren/implementation/project/textures/packages/coloredalligator/foreground.png"
   inkscape:export-xdpi="320.15851"
   inkscape:export-ydpi="320.15851"><sodipodi:namedview
     pagecolor="#ffffff"
     bordercolor="#666666"
     borderopacity="1"
     objecttolerance="10"
     gridtolerance="10"
     guidetolerance="10"
     inkscape:pageopacity="0"
     inkscape:pageshadow="2"
     inkscape:window-width="1366"
     inkscape:window-height="721"
     id="namedview42"
     showgrid="false"
     inkscape:zoom="1.3477011"
     inkscape:cx="136.37529"
     inkscape:cy="111.92"
     inkscape:window-x="0"
     inkscape:window-y="0"
     inkscape:window-maximized="1"
     inkscape:current-layer="svg2" /><metadata
     id="metadata8"><rdf:RDF><cc:Work
         rdf:about=""><dc:format>image/svg+xml</dc:format><dc:type
           rdf:resource="http://purl.org/dc/dcmitype/StillImage" /><dc:title /></cc:Work></rdf:RDF></metadata><defs
     id="defs6" /><path
     d="m 183.91521,27.688055 c -1.94946,-3.409425 -3.6267,-5.191037 -5.47485,-5.4126 -1.87439,-0.2246 -3.51624,1.064463 -5.34301,3.801888 -0.69214,-0.02625 -1.38917,-0.03787 -2.09108,-0.0385 -1.79199,-3.568725 -3.36364,-5.390625 -5.32165,-5.401 0,0 -0.005,0 -0.005,0 -2.06359,-0.01 -3.96484,2.095937 -6.44409,6.400137 -0.39367,0.0635 -0.78857,0.130013 -1.18407,0.198975 -3.09021,-3.5852 -5.28382,-5.2362 -7.25159,-4.90295 -2.17773,0.36865 -3.45032,2.883913 -4.66736,7.60925 0,0 0.19104,0.04825 0.19104,0.04825 -0.41322,0.119625 -0.82642,0.241688 -1.2384,0.3662 0,0 0.3064,-0.273437 0.3064,-0.273437 -2.71668,-3.062738 -4.81324,-4.39025 -6.84388,-3.789675 -2.6593,0.784912 -4.48791,5.469974 -4.78882,7.969362 -0.58899,0.227663 -1.17737,0.457775 -1.76148,0.691537 0,0 -0.96007,-0.473025 -0.96007,-0.473025 -3.396,-2.2748 -5.7489,-3.074962 -7.53785,-2.238774 -1.37268,1.259162 -2.29248,3.969724 -2.90162,7.671499 -1.81273,0.850825 -4.69176,-5.9198 -9.07653,-3.511962 -1.88172,1.033325 -2.59583,4.0509 -2.84973,9.520275 0,0 0.0125,6.13e-4 0.0125,6.13e-4 -0.0495,0.02562 -0.0989,0.0525 -0.14831,0.07937 -4.17298,-2.134999 -6.86158,-2.767337 -8.6383,-1.615 -1.71265,1.11145 -2.186888,3.568125 -1.934813,7.624513 -0.159912,0.09525 -0.318,0.19165 -0.476687,0.286262 -4.113775,-2.442625 -6.773688,-3.39295 -8.588875,-2.341925 -1.826163,1.056525 -2.277213,3.7854 -1.927488,8.669438 -0.494387,0.278925 -0.994262,0.556637 -1.496575,0.832512 -3.607787,-2.062987 -6.041875,-2.733762 -7.780762,-1.811512 -1.773075,0.941162 -2.438963,3.2428 -2.487188,7.10815 -0.283812,0.13795 -0.56945,0.275262 -0.8551,0.413212 -3.628537,-2.44385 -6.076662,-3.476562 -7.88635,-2.715462 -1.887212,0.795287 -2.599485,3.184212 -2.658085,7.53785 -0.574337,0.249625 -1.150512,0.499875 -1.729125,0.7489 -4.032587,-2.526863 -6.705925,-3.507088 -8.603512,-2.72095 -2.000125,0.82885 -2.749638,3.226925 -2.841188,7.416375 -0.2362,0.094 -0.4718,0.186162 -0.708012,0.277712 -3.5675,-2.499387 -5.997925,-3.6206 -7.819825,-3.012087 -1.952513,0.653687 -2.760613,2.89185 -2.92785,7.055062 -0.10315,0.0385 -0.206913,0.07512 -0.310063,0.112875 -3.171387,-2.589112 -5.4364,-3.606562 -7.294912,-2.934575 -1.870125,0.676888 -2.893688,2.877813 -3.583988,6.7212 -0.245362,0.08175 -0.490112,0.162963 -0.73425,0.245363 -3.334362,-3.208625 -5.653087,-4.691163 -7.62635,-4.119875 -2.009275,0.582275 -3.0835,3.0725 -3.875725,7.794187 -5.4828,1.674188 -10.706787,3.159788 -15.5065995,4.418938 0,0 -0.2441375,2.72645 -0.2441375,2.72645 27.280275,12.510985 42.796025,11.534425 62.413325,9.550165 4.105835,-0.19775 8.195797,-0.61279 12.268072,-1.19995 6.286,-0.54443 13.16345,-0.96435 20.9851,-0.9552 8.042003,0.006 17.160033,0.82397 26.622313,1.66993 36.10596,3.23182 77.09474,6.90003 86.72974,-31.204233 1.31226,-5.183712 1.43739,-10.38145 0.4889,-15.46875 -0.97108,-5.211175 -3.06458,-10.291125 -6.15784,-15.108012 C 198.43627,34.35673 191.7041,29.868817 183.9154,27.68803 c 0,0 0,0 0,0 z"
     id="path154"
     style="fill:#000000;fill-opacity:1;fill-rule:nonzero;stroke:none"
     inkscape:connector-curvature="0" /><path
     d="m 78.158373,63.298405 c 0.09275,-1.782225 0.358887,-2.8009 0.891124,-3.082275 0.573113,-0.30395 1.669301,0.0012 3.384388,0.882575 -1.395862,0.738525 -2.825312,1.47155 -4.275512,2.1997 0,0 0,0 0,0 z M 66.74481,68.693918 c 0.075,-2.186275 0.324088,-3.33985 0.84655,-3.560788 0.585938,-0.245362 1.784675,0.284425 3.6847,1.4917 -1.489875,0.6964 -3.002937,1.386713 -4.53125,2.069088 0,0 0,0 0,0 z m -13.182372,5.579225 c 0.100087,-2.138063 0.396112,-3.312988 1.013175,-3.571175 0.719,-0.296013 2.075812,0.197762 4.213262,1.431275 -1.731562,0.723275 -3.474125,1.437387 -5.226437,2.1399 0,0 0,0 0,0 z m -11.437988,4.4049 c 0.123288,-2.008663 0.391837,-3.049925 0.897213,-3.218375 0.6134,-0.205088 1.790775,0.333862 3.61145,1.52405 -1.50085,0.573725 -3.005988,1.139525 -4.508663,1.694325 0,0 0,0 0,0 z M 31.152763,82.58308 c 0.392462,-1.74195 0.827025,-2.712413 1.402587,-2.92115 0.591438,-0.2124 1.589975,0.245975 3.0896,1.35865 -1.503287,0.532225 -3.0011,1.051638 -4.492187,1.5625 0,0 0,0 0,0 z m -12.292475,4.030763 c 0.475462,-2.54885 0.950925,-3.863525 1.572262,-4.041138 0.63965,-0.186162 1.829225,0.632925 3.692625,2.360838 -1.7749,0.575562 -3.529662,1.135862 -5.264887,1.6803 0,0 0,0 0,0 z M 111.6679,44.344555 c 0.21362,-3.2666 0.56457,-5.015262 1.24206,-5.386962 0.62013,-0.340576 2.07948,0.527337 4.55445,2.460325 -1.98914,0.97105 -3.92334,1.950075 -5.79651,2.926637 0,0 0,0 0,0 z m -10.87646,5.997925 c -0.0549,-1.9983 0.13671,-3.155525 0.67932,-3.508912 0.59326,-0.384525 1.8634,-0.07325 3.94165,0.880125 -1.61134,0.8966 -3.15491,1.775512 -4.62097,2.628787 0,0 0,0 0,0 z m -11.017455,6.67175 c -0.149537,-2.742925 -0.0025,-4.208987 0.57555,-4.543462 0.593875,-0.343013 2.000125,0.216675 4.329838,1.542362 -0.430913,0.267338 -0.851438,0.529788 -1.259763,0.784913 -1.177375,0.740362 -2.395025,1.480712 -3.645625,2.216187 0,0 0,0 0,0 z M 176.4671,26.307443 c 0.65428,-0.815425 1.18652,-1.201175 1.63512,-1.147463 0.52308,0.06287 1.1261,0.603025 1.8573,1.63025 -1.14685,-0.204462 -2.31262,-0.36255 -3.49242,-0.482787 0,0 0,0 0,0 z m -13.55653,0.2179 c 1.24818,-2.005625 2.12098,-2.991338 2.76368,-2.987675 0,0 -0.005,0 -0.005,0 0.55846,0.0025 1.23717,0.872187 2.1405,2.578125 -1.6156,0.07875 -3.25074,0.2179 -4.89869,0.40955 0,0 0,0 0,0 z m -25.86852,6.50695 c 0.86609,-2.434688 1.58935,-3.733513 2.3236,-3.949588 0.6305,-0.185537 1.62171,0.528575 3.09326,2.092288 -1.81274,0.583499 -3.62121,1.20545 -5.41686,1.8573 0,0 0,0 0,0 z m 12.31445,-3.878775 c 0.71227,-2.518925 1.297,-3.836063 1.92687,-3.942263 0.66224,-0.11175 1.76514,0.774538 3.47108,2.661725 -1.79199,0.3772 -3.59558,0.806288 -5.39795,1.280525 0,0 0,0 0,0 z m -25.81299,9.401849 c 0.22461,-2.177124 0.578,-3.391724 1.18225,-3.674312 0.63843,-0.298462 1.87928,0.203238 3.8678,1.4685 -1.70532,0.717775 -3.39111,1.455075 -5.05005,2.205812 0,0 0,0 0,0 z"
     id="path156"
     style="fill:#ff0000;fill-opacity:1;fill-rule:nonzero;stroke:none"
     inkscape:connector-curvature="0" /><path
     d="m 174.02568,29.042418 c 0,0 0.47608,0.276487 0.47608,0.276487 0.047,-0.08063 0.0946,-0.158087 0.13855,-0.236212 2.53724,0.178224 4.99573,0.545662 7.35291,1.129149 0.0561,0.105626 0.11288,0.211801 0.16968,0.320438 0,0 0.35217,-0.18615 0.35217,-0.18615 7.42004,1.950675 13.8031,6.08215 18.38866,13.221437 2.89734,4.512938 4.85353,9.244988 5.75318,14.072263 0.87036,4.673462 0.75256,9.45495 -0.45349,14.232787 -1.01135,3.995975 -2.40783,7.49695 -4.13635,10.565788 -24.62036,-11.957388 -52.30041,-3.276975 -81.69738,5.942387 -15.00672,4.705813 -30.465705,9.55445 -46.127942,11.808478 -3.371575,0.29296 -6.563713,0.61828 -9.641113,0.93383 -0.773922,0.0787 -1.538685,0.15687 -2.29736,0.23438 -0.769037,0.0366 -1.538087,0.0678 -2.306512,0.0885 0,0 0.003,0.1416 0.003,0.1416 C 42.7146,103.27703 28.294438,103.75799 4.9515375,93.735405 19.428475,89.758967 37.029788,84.000905 53.914563,77.257142 69.083623,71.200617 83.68811,64.343317 94.960698,57.257742 109.02625,48.417417 137.64685,32.554992 162.75855,29.47393 c 2.17774,-0.267325 4.328,-0.4364 6.43921,-0.496825 0.008,0.01825 0.014,0.03475 0.0226,0.0525 0,0 0.12387,-0.0555 0.12387,-0.0555 1.58507,-0.04213 3.14635,-0.02075 4.68139,0.06837 0,0 0,0 0,0 z"
     id="path158"
     style="fill:#ff0000;fill-opacity:1;fill-rule:nonzero;stroke:none"
     inkscape:connector-curvature="0" /><path
     d="m 122.00055,90.913768 c 0.44372,1.508174 1.22375,3.649287 2.18261,5.68115 0.57984,1.234737 1.73156,3.12195 2.82715,4.699102 -1.49414,-0.13002 -2.98462,-0.26429 -4.46472,-0.39551 -9.51478,-0.85329 -18.68592,-1.672992 -26.885993,-1.68213 -0.667725,0 -1.329949,0.0025 -1.984249,0.0087 9.320672,-2.352913 18.520512,-5.237425 27.556762,-8.070687 0.25635,-0.08175 0.51147,-0.161138 0.76844,-0.241075 0,0 0,0 0,0 z"
     id="path160"
     style="fill:#ff0000;fill-opacity:1;fill-rule:nonzero;stroke:none"
     inkscape:connector-curvature="0" /><path
     d="m 134.65068,87.017892 c 0.50172,2.298588 1.35865,4.836425 2.45973,7.197263 1.09009,2.340087 3.31359,5.948485 5.17821,8.214115 -4.45251,-0.23987 -8.93432,-0.58899 -13.37585,-0.97107 -1.19323,-1.59302 -2.74109,-4.041133 -3.41796,-5.480345 -0.94483,-2.009275 -1.70777,-4.094238 -2.11731,-5.496213 3.79027,-1.187137 7.54943,-2.356575 11.27318,-3.46375 0,0 0,0 0,0 z"
     id="path162"
     style="fill:#ff0000;fill-opacity:1;fill-rule:nonzero;stroke:none"
     inkscape:connector-curvature="0" /><path
     d="m 151.20281,82.59833 c 0.38696,2.7826 1.38427,5.803225 2.56714,8.615113 1.67847,3.986825 4.29566,8.7555 5.87891,11.411137 -4.97559,0.21973 -10.12085,0.14526 -15.31861,-0.094 -1.83654,-1.7981 -4.66735,-6.279912 -5.90149,-8.928225 -1.07421,-2.3053 -1.90735,-4.779662 -2.37976,-6.9989 5.12207,-1.502075 10.17701,-2.875375 15.15381,-4.005137 0,0 0,0 0,0 z"
     id="path164"
     style="fill:#ff0000;fill-opacity:1;fill-rule:nonzero;stroke:none"
     inkscape:connector-curvature="0"
     inkscape:export-filename="/home/vincent/Projekte/lambda-alligatoren/implementation/project/textures/packages/coloredalligator/foreground.png"
     inkscape:export-xdpi="320.04999"
     inkscape:export-ydpi="320.04999" /><path
     d="m 176.48662,100.40229 c -1.156,-1.182247 -3.58276,-5.261835 -5.61035,-10.244135 -1.32874,-3.261112 -2.44262,-6.882937 -2.85705,-10.301512 11.39893,-0.983888 22.28454,0.181249 32.50671,5.075062 -5.6482,8.3429 -14.08631,13.020638 -24.03931,15.470585 0,0 0,0 0,0 z"
     id="path166"
     style="fill:#ff0000;fill-opacity:1;fill-rule:nonzero;stroke:none"
     inkscape:connector-curvature="0" /><path
     d="m 166.56902,79.99153 c 0.42786,3.571163 1.58448,7.334587 2.9602,10.714713 1.77369,4.354862 3.97889,8.110962 5.49378,10.038447 -4.38049,0.96925 -9.03748,1.53199 -13.8623,1.80481 -1.25549,-2.08922 -4.18945,-7.478632 -6.05042,-11.898795 -1.15783,-2.752075 -2.1283,-5.696413 -2.4823,-8.36975 4.72168,-1.027837 9.37073,-1.825563 13.94104,-2.289425 0,0 0,0 0,0 z"
     id="path168"
     style="fill:#ff0000;fill-opacity:1;fill-rule:nonzero;stroke:none"
     inkscape:connector-curvature="0" /><path
     d="m 140.23724,69.966505 c 2.13683,12.122188 -9.87183,24.277338 -9.5636,35.626215 3.48755,0.18737 6.15967,-2.3053 7.01355,-2.45605 -0.5835,0.1025 -1.18774,3.06152 -1.52222,6.39587 2.60682,-0.28015 5.51575,-3.3014 6.15661,-3.41431 0.20387,1.92078 -0.70007,4.79554 -0.48035,5.65369 20.94849,-9.7998 31.13709,-32.382815 30.62562,-39.656377 0,0 -32.22961,-2.149038 -32.22961,-2.149038 0,0 0,0 0,0 z"
     id="path170"
     style="fill:#ff0000;fill-opacity:1;fill-rule:evenodd;stroke:none"
     inkscape:connector-curvature="0" /><path
     d="m 151.86871,103.72992 c -3.58583,-0.71715 -7.06178,-1.96168 -10.11841,-3.850703 -2.5409,-1.566775 -4.79493,-3.580324 -6.5802,-6.103512 0.51575,-1.195075 1.06445,-2.400512 1.61498,-3.6084 4.469,-9.8175 6.87013,-15.645137 2.75392,-25.627437 0.66588,7.068475 -0.3296,14.136962 -5.39979,24.424437 -2.55676,5.614625 -5.07263,11.140755 -4.92309,16.670525 0,0 0.0373,1.33545 0.0373,1.33545 2.1399,0.11475 3.88306,0.0537 5.90515,-0.85876 -0.29175,1.67602 -0.448,3.36731 -0.61829,5.06042 2.03614,-0.32103 3.16773,-0.77392 6.11085,-2.10143 -0.28382,1.7688 -0.22827,3.00781 0.21973,4.76012 9.13635,-4.27429 16.474,-9.97741 22.65075,-17.97485 7.3584,-9.529412 11.04187,-17.779537 9.80469,-29.415887 -1.9934,9.3573 -3.82263,17.702637 -12.10388,27.642212 -2.60437,3.370363 -5.72144,6.685785 -9.35364,9.647825 0,0 0,0 0,0 z"
     id="path172"
     style="fill:#000000;fill-opacity:1;fill-rule:nonzero;stroke:none"
     inkscape:connector-curvature="0" /><path
     d="m 134.20391,96.110905 c 1.81763,2.27845 3.99353,4.136365 6.40015,5.621955 2.76855,1.70959 5.84229,2.92725 9.02526,3.7262 0,0 -6.07543,3.82935 -6.07543,3.82935 0,0 0.0489,-4.87794 0.0489,-4.87794 0,0 -5.70739,2.96936 -5.70739,2.96936 0,0 -0.45532,-5.68176 -0.45532,-5.68176 0,0 -5.27283,2.33886 -5.27283,2.33886 0,0 2.03674,-7.926025 2.03674,-7.926025 0,0 0,0 0,0 z"
     id="path174"
     style="fill:#ff0000;fill-opacity:1;fill-rule:nonzero;stroke:none"
     inkscape:connector-curvature="0" /><path
     d="m 66.865647,80.58723 c 0.319225,12.304075 -13.359972,22.54578 -14.736322,33.81409 3.420412,0.70251 6.433725,-1.36598 7.2992,-1.38794 -0.592038,0.0146 -1.626588,2.85095 -2.453,6.09924 2.620237,0.10925 5.945425,-2.44813 6.594237,-2.46399 -0.0824,1.92932 -1.402587,4.63806 -1.312262,5.51941 22.169185,-6.5857 35.59326,-27.410898 36.16516,-34.679572 0,0 -31.557012,-6.901238 -31.557012,-6.901238 0,0 0,0 0,0 z"
     id="path176"
     style="fill:#ff0000;fill-opacity:1;fill-rule:evenodd;stroke:none"
     inkscape:connector-curvature="0" /><path
     d="m 73.365285,115.70137 c -3.439937,-1.24085 -6.691287,-2.98768 -9.435422,-5.30701 -2.280275,-1.9281 -4.211426,-4.25232 -5.603638,-7.01172 0.689087,-1.1072 1.410525,-2.21497 2.132575,-3.32949 5.875847,-9.046008 9.112548,-14.453733 6.522822,-24.937133 -0.390012,7.08985 -2.420662,13.933113 -8.960572,23.354501 -3.361812,5.174562 -6.668088,10.266722 -7.33825,15.757452 0,0 -0.16175,1.3269 -0.16175,1.3269 2.099,0.42968 3.831787,0.62622 5.9668,0.0263 -0.535888,1.61376 -0.943,3.26232 -1.3623,4.91088 2.061762,-0.0146 3.248287,-0.2948 6.355587,-1.17005 -0.5426,1.70472 -0.671387,2.94007 -0.487675,4.73755 9.667973,-2.87231 17.76916,-7.42492 25.064085,-14.41955 8.690188,-8.33252 13.555301,-15.945433 14.055173,-27.637945 -3.35876,8.960575 -6.402585,16.942137 -16.066285,25.545045 -3.07495,2.94739 -6.649775,5.76356 -10.68115,8.15431 0,0 0,0 0,0 z"
     id="path178"
     style="fill:#000000;fill-opacity:1;fill-rule:nonzero;stroke:none"
     inkscape:connector-curvature="0" /><path
     d="m 57.025562,105.54878 c 1.459963,2.52258 3.337413,4.682 5.495613,6.50695 2.48596,2.10205 5.344848,3.7616 8.374635,5.02381 0,0 -6.576535,2.88697 -6.576535,2.88697 0,0 0.77086,-4.8169 0.77086,-4.8169 0,0 -6.08336,2.09045 -6.08336,2.09045 0,0 0.391225,-5.68664 0.391225,-5.68664 0,0 -5.5603,1.53259 -5.5603,1.53259 0,0 3.187862,-7.53723 3.187862,-7.53723 0,0 0,0 0,0 z"
     id="path180"
     style="fill:#ff0000;fill-opacity:1;fill-rule:nonzero;stroke:none"
     inkscape:connector-curvature="0" /><path
     d="m 231.16864,58.062818 c 1.52038,1.7102 3.02184,3.231199 4.28588,4.256575 1.46545,1.188362 2.80151,1.756587 3.85193,1.384887 0,0 0.56946,-0.355838 0.56946,-0.355838 0.64391,-0.623774 1.0376,-1.8457 1.20849,-3.488762 0.14038,-1.334838 0.17151,-3.011475 0.108,-4.891363 0.96923,-0.302125 1.94031,-0.6073 2.91442,-0.9143 0.83253,1.856688 1.67236,3.516225 2.4347,4.7235 1.00036,1.588138 2.06055,2.578125 3.12988,2.634288 0,0 0.67261,-0.112875 0.67261,-0.112875 1.0022,-0.416238 1.9342,-1.864013 2.73499,-3.984375 0.66711,-1.764512 1.33727,-4.129025 1.93847,-6.795637 0.29603,-0.09825 0.58776,-0.197138 0.88256,-0.296626 0.63173,1.276226 1.25307,2.387688 1.8274,3.226313 0.88928,1.29515 1.83167,2.083125 2.80518,2.133175 0,0 0.67505,-0.111125 0.67505,-0.111125 0.91247,-0.38025 1.75415,-1.584475 2.48351,-3.361213 0.56153,-1.365349 1.12549,-3.150037 1.64856,-5.184324 0.60425,-0.218513 1.20484,-0.43945 1.80664,-0.662225 0.83496,1.906124 1.69251,3.65295 2.48841,4.9823 1.08643,1.8164 2.23449,2.9718 3.3728,3.031 0,0 0.67505,-0.111125 0.67505,-0.111125 1.10047,-0.459588 2.14844,-2.248538 3.03894,-4.844363 0.69703,-2.033687 1.38611,-4.664912 1.98181,-7.554312 1.32019,2.284537 2.70753,4.477537 3.94165,6.116325 1.58692,2.1045 3.13904,3.414925 4.42444,3.250125 0,0 0.64026,-0.2362 0.64026,-0.2362 1.08093,-0.69275 1.90735,-2.988288 2.43469,-6.152963 0.40711,-2.45605 0.70556,-5.548087 0.85023,-8.839712 0.47485,-0.251475 0.9497,-0.502325 1.41723,-0.756838 2.32422,-1.260987 4.32557,-2.610475 6.02234,-4.017337 4.24865,-3.520513 6.64429,-7.427975 7.55066,-11.275638 0,0 0.001,0.005 0.001,0.005 0.9253,-3.9209 0.29968,-7.755125 -1.49232,-11.0571375 -0.52306,-0.9661875 -1.14623,-1.88415 -1.85485,-2.740475 -1.95617,-2.3584 -4.58801,-3.9862 -7.54211,-4.954225 -3.75732,-1.2316875 -8.04687,-1.4056375 -12.11121,-0.672 -4.0686,0.735475 -7.94921,2.3925875 -10.87464,4.8169 -1.93602,1.604 -3.4558,3.542475 -4.35607,5.7745375 -0.5664,0.172113 -1.07422,0.332638 -1.64857,0.512088 -9.06555,2.8479 -31.97326,10.046387 -41.32507,4.255362 -7.41576,-5.752562 -15.72754,-7.0971625 -23.25073,-5.115962 -4.86633,1.281737 -9.38903,3.956912 -13.10547,7.7301 -3.69995,3.7561 -6.60766,8.59985 -8.26355,14.234012 -3.25866,11.0852 -1.68029,25.242925 8.25379,40.162963 0,0 0.8844,1.329962 0.8844,1.329962 0,0 1.30737,-0.91615 1.30737,-0.91615 6.86401,-4.8114 22.41821,-9.5874 40.29541,-15.075062 0.0885,-0.02687 0.17762,-0.05438 0.26612,-0.08175 0,0 0,0 0,0 z"
     id="path182"
     style="fill:#000000;fill-opacity:1;fill-rule:nonzero;stroke:none"
     inkscape:connector-curvature="0" /><path
     d="m 190.16582,69.787667 c -8.60717,-13.575437 -9.94506,-26.304937 -7.0166,-36.275025 1.50635,-5.124512 4.14001,-9.51965 7.48719,-12.91565 3.32824,-3.379525 7.35961,-5.770887 11.68761,-6.910412 6.65223,-1.7511 14.03626,-0.531 20.6421,4.638687 0,0 0.1361,0.09887 0.1361,0.09887 10.55115,6.583251 34.47754,-0.933837 43.94104,-3.907475 1.08765,-0.341787 2.0105,-0.632325 2.35352,-0.733637 0,0 0.7843,-0.233763 0.7843,-0.233763 0,0 0.2533,-0.772712 0.2533,-0.772712 0.65063,-1.980588 1.94458,-3.704225 3.656,-5.1220625 2.49878,-2.070925 5.87219,-3.494875 9.45069,-4.1412375 3.58459,-0.6482 7.33581,-0.505375 10.58471,0.558475 2.42493,0.7952875 4.56299,2.1014375 6.11084,3.9709375 0.58716,0.7074 1.0962,1.4581375 1.52283,2.2424375 1.43493,2.646487 1.93665,5.718375 1.19568,8.857425 0,0 0.002,0.0062 0.002,0.0062 -0.75806,3.214725 -2.8186,6.525262 -6.5033,9.580075 -1.55212,1.286012 -3.38683,2.523187 -5.52551,3.683462 -0.81115,0.440675 -1.63635,0.876475 -2.47375,1.306763 0,0 -0.50537,-0.01125 -0.50537,-0.01125 -0.002,0.09038 -0.005,0.181275 -0.007,0.272212 -16.82923,8.560188 -38.7268,15.2826 -57.95105,21.184088 -17.07642,5.242312 -32.06299,9.843137 -39.82544,14.623412 0,0 0,0 0,0 z"
     id="path184"
     style="fill:#ff0000;fill-opacity:1;fill-rule:nonzero;stroke:none;opacity:1"
     inkscape:connector-curvature="0" /><path
     d="m 251.53972,51.668768 c -0.44372,1.756587 -0.91186,3.309937 -1.38061,4.5459 -0.24231,0.643299 -0.45287,1.166387 -0.62072,1.541737 -0.0866,-0.175162 -0.20326,-0.387575 -0.35828,-0.632325 -0.64881,-1.030875 -1.36598,-2.434688 -2.08862,-4.017338 1.48071,-0.473625 2.96325,-0.951537 4.44823,-1.437987 0,0 0,0 0,0 z"
     id="path186"
     style="fill:#ffffff;fill-opacity:1;fill-rule:nonzero;stroke:none"
     inkscape:connector-curvature="0" /><path
     d="m 261.75091,48.210518 c -0.31373,1.046124 -0.62866,1.964712 -0.93995,2.720337 -0.15014,0.368038 -0.28381,0.682375 -0.39794,0.93445 -0.0292,-0.05375 -0.0659,-0.11225 -0.10862,-0.173337 -0.43945,-0.640876 -0.92224,-1.492925 -1.42273,-2.484138 0.95764,-0.329587 1.91528,-0.661013 2.86926,-0.997312 0,0 0,0 0,0 z"
     id="path188"
     style="fill:#ffffff;fill-opacity:1;fill-rule:nonzero;stroke:none"
     inkscape:connector-curvature="0" /><path
     d="m 287.78423,37.538518 c -0.15686,2.498175 -0.40161,4.80835 -0.71716,6.701649 -0.25207,1.517963 -0.49621,2.698363 -0.71472,3.384413 -0.26978,-0.3528 -0.69275,-0.9137 -1.21765,-1.611325 -1.11023,-1.473387 -2.37305,-3.45825 -3.59253,-5.557862 2.13623,-0.947875 4.2218,-1.91895 6.24206,-2.916875 0,0 0,0 0,0 z"
     id="path190"
     style="fill:#ffffff;fill-opacity:1;fill-rule:nonzero;stroke:none"
     inkscape:connector-curvature="0" /><path
     d="m 275.21465,43.139705 c -0.45715,1.967163 -0.94543,3.736575 -1.43859,5.1709 -0.35401,1.031488 -0.65919,1.842037 -0.89539,2.35535 -0.13794,-0.256963 -0.32532,-0.601812 -0.57495,-1.017463 -0.69397,-1.160275 -1.46485,-2.73315 -2.23634,-4.485475 1.73402,-0.662225 3.45033,-1.336062 5.14527,-2.023312 0,0 0,0 0,0 z"
     id="path192"
     style="fill:#ffffff;fill-opacity:1;fill-rule:nonzero;stroke:none"
     inkscape:connector-curvature="0" /><path
     d="m 238.08697,55.933292 c 0.0269,1.425788 -0.004,2.654426 -0.10312,3.611438 -0.033,0.310688 -0.0641,0.57985 -0.0959,0.80445 -0.116,-0.1294 -0.26733,-0.2832 -0.46936,-0.446775 -0.84473,-0.684825 -1.8628,-1.68275 -2.94922,-2.852788 1.19751,-0.36865 2.40417,-0.740362 3.61756,-1.116337 0,0 0,0 0,0 z"
     id="path194"
     style="fill:#ffffff;fill-opacity:1;fill-rule:nonzero;stroke:none"
     inkscape:connector-curvature="0" /><path
     d="m 295.53813,9.4617425 c -1.71081,-0.874025 -8.16527,-3.845225 -12.06908,-3.2183875 -4.10705,0.6597875 -5.32288,5.249025 2.77832,3.577275 0,0 3.98072,-0.82155 3.98072,-0.82155 0,0 5.31004,0.4626625 5.31004,0.4626625 0,0 0,0 0,0 z"
     id="path196"
     style="fill:#000000;fill-opacity:1;fill-rule:evenodd;stroke:none"
     inkscape:connector-curvature="0" /><path
     d="m 196.862,18.41193 c -1.45264,2.89185 -2.08985,6.22925 -1.64795,9.668588 1.1792,9.193112 9.63988,15.72815 18.833,14.547725 4.59717,-0.5896 8.52966,-3.000488 11.16455,-6.41235 2.40783,-3.117063 3.7323,-7.073975 3.49243,-11.24085 0,0 -25.42358,-7.440188 -25.42358,-7.440188 0,0 0.58837,3.279425 0.58837,3.279425 0,0 -7.00682,-2.40235 -7.00682,-2.40235 0,0 0,0 0,0 z"
     id="path198"
     style="fill:#000000;fill-opacity:1;fill-rule:nonzero;stroke:none"
     inkscape:connector-curvature="0" /><path
     d="m 224.83075,25.75568 c 0.32408,3.33985 -0.68727,6.531988 -2.60988,9.020388 -1.9989,2.587287 -4.98046,4.414062 -8.46496,4.862062 -6.97021,0.895388 -13.38561,-4.05945 -14.28039,-11.030275 -0.34302,-2.674562 0.17455,-5.267337 1.33728,-7.497562 0,0 4.55932,1.563112 4.55932,1.563112 0,0 -0.49439,-2.757562 -0.49439,-2.757562 0,0 19.95302,5.839837 19.95302,5.839837 0,0 0,0 0,0 z"
     id="path200"
     style="fill:#f47216;fill-opacity:1;fill-rule:nonzero;stroke:none"
     inkscape:connector-curvature="0" /><path
     d="m 200.1469,20.882017 c -1.19201,2.330925 -1.71935,5.030513 -1.36169,7.814326 0.94299,7.350462 7.70874,12.576299 15.0592,11.632687 7.11915,-0.913688 12.24426,-7.286975 11.7041,-14.364013 0,0 -20.67078,-6.049187 -20.67078,-6.049187 0,0 0.49439,2.757562 0.49439,2.757562 0,0 -5.22522,-1.791375 -5.22522,-1.791375 0,0 0,0 0,0 z"
     id="path202"
     style="fill:#ffffff;fill-opacity:1;fill-rule:evenodd;stroke:none"
     inkscape:connector-curvature="0" /><path
     d="m 216.54766,25.837468 c -0.15136,-1.177975 -0.46509,-2.288813 -0.87524,-3.310538 0,0 -7.34741,-2.149662 -7.34741,-2.149662 -0.63844,1.872562 -1.0669,4.193112 -0.75745,6.611937 0.72997,5.679325 5.18615,9.815063 5.8136,9.733888 0.62928,-0.0805 3.89647,-5.208138 3.1665,-10.885625 0,0 0,0 0,0 z"
     id="path204"
     style="fill:#000000;fill-opacity:1;fill-rule:evenodd;stroke:none"
     inkscape:connector-curvature="0" /><path
     d="m 214.94182,22.860793 c -0.44677,0.715325 -0.65917,1.582637 -0.54321,2.47985 0.26611,2.0697 2.17041,3.54065 4.2389,3.274537 1.89086,-0.242312 3.28003,-1.8518 3.30382,-3.705437 0,0 -6.99951,-2.04895 -6.99951,-2.04895 0,0 0,0 0,0 z"
     id="path206"
     style="fill:#ffffff;fill-opacity:1;fill-rule:evenodd;stroke:none"
     inkscape:connector-curvature="0" /><path
     d="m 249.78985,86.955618 c -0.74585,-2.73985 -1.59547,-5.253901 -2.43348,-7.178325 -1.01683,-2.332151 -2.14905,-3.934338 -3.26537,-4.322513 0,0 -0.59876,-0.0855 -0.59876,-0.0855 -1.18347,0.06838 -2.3767,1.2793 -3.49243,3.135375 -0.3534,0.588388 -0.71411,1.253663 -1.07789,1.970213 -0.0817,-0.832513 -0.18127,-1.604 -0.29906,-2.298575 -0.37354,-2.199713 -1.01441,-3.80005 -1.92322,-4.423838 0,0 -0.5603,-0.239862 -0.5603,-0.239862 -1.12733,-0.23865 -2.53968,0.560912 -4.04603,1.977537 -1.14319,1.074825 -2.43164,2.5293 -3.703,4.1095 -3.80066,-3.022462 -7.43102,-7.328487 -11.0968,-11.680912 -2.30591,-2.734375 -4.62402,-5.484613 -7.0398,-7.9895 -4.77355,-4.945675 -8.97094,-7.944338 -12.61779,-9.346925 -3.46375,-1.333613 -6.47217,-1.269525 -9.04175,-0.086 -2.51831,1.16395 -4.53063,3.388675 -6.06628,6.416625 -2.16125,4.257812 -3.39355,10.174562 -3.77808,16.931762 -0.108,1.887213 -0.0842,3.688363 0.0616,5.405887 0.80016,9.390876 5.27037,15.963738 12.18383,20.341801 6.75293,4.275512 15.80688,6.397702 25.9967,6.977542 5.72083,0.32715 11.82007,0.16723 18.078,-0.36622 7.74475,-0.66101 13.25745,0.3888 19.67652,1.60889 5.96191,1.13281 12.68372,2.41089 22.50061,2.67334 8.44177,0.22705 14.10827,-2.08801 16.85913,-5.17944 1.19141,-1.3385 1.86889,-2.82715 2.02453,-4.34936 0.16053,-1.544802 -0.21606,-3.10059 -1.13648,-4.544077 -1.17492,-1.8457 -3.28063,-3.499138 -6.31591,-4.651488 0.0763,-2.283937 0.0299,-4.362787 -0.14831,-6.008912 -0.23071,-2.130125 -0.75745,-3.703613 -1.60584,-4.373163 0,0 -0.54382,-0.275275 -0.54382,-0.275275 -1.2622,-0.357662 -3.05786,0.6659 -4.99878,2.410275 -1.81336,1.628425 -3.92212,3.92395 -5.79041,6.167 -0.036,-0.0025 -0.0732,-0.0062 -0.11113,-0.0087 -0.70496,-2.400512 -1.47766,-4.559937 -2.23327,-6.21215 -0.95215,-2.081912 -2.00684,-3.5016 -3.06336,-3.868412 0,0 -0.59754,-0.0855 -0.59754,-0.0855 -1.20666,0.06963 -2.42554,1.329937 -3.56384,3.248887 -0.72876,1.228038 -1.49719,2.790538 -2.23632,4.470825 -0.59754,-1.9281 -1.23535,-3.674312 -1.8628,-5.080562 -0.98328,-2.205188 -2.07703,-3.713363 -3.16223,-4.091801 0,0 -0.59876,-0.08487 -0.59876,-0.08487 -1.21581,0.07025 -2.45116,1.35925 -3.6029,3.31665 -0.94483,1.60705 -1.95435,3.762813 -2.87841,6.0022 -0.62379,-0.104375 -1.25307,-0.214237 -1.89088,-0.33265 0,0 0,0 0,0 z"
     id="path208"
     style="fill:#000000;fill-opacity:1;fill-rule:nonzero;stroke:none"
     inkscape:connector-curvature="0" /><path
     d="m 208.01372,62.091743 c 2.33948,2.4231 4.62464,5.134275 6.89636,7.829587 5.95704,7.0691 11.82618,14.035038 18.93738,16.242075 14.71192,4.564813 23.7494,5.256338 35.38636,6.14685 3.81469,0.29235 7.91199,0.605463 12.58057,1.086425 5.64818,0.58105 9.13878,2.463988 10.55847,4.692375 0.52367,0.823363 0.74219,1.697388 0.65246,2.553105 -0.0904,0.87891 -0.50537,1.76697 -1.24206,2.59338 -2.20276,2.47742 -7.02149,4.32434 -14.4513,4.12415 -9.66614,-0.2588 -16.203,-1.50149 -22.00439,-2.60498 -6.65832,-1.26525 -12.37671,-2.35292 -20.51759,-1.65894 -6.10228,0.52002 -12.05077,0.67444 -17.63548,0.35706 -9.7046,-0.55359 -18.25501,-2.52869 -24.50989,-6.490475 -6.09497,-3.85865 -10.03662,-9.664925 -10.74525,-17.972412 -0.13184,-1.555175 -0.15136,-3.208013 -0.0525,-4.964 0.36255,-6.352538 1.48743,-11.84875 3.44788,-15.712275 1.21582,-2.396238 2.74292,-4.127813 4.59412,-4.981075 1.80236,-0.831913 3.99535,-0.844125 6.60949,0.161125 3.2428,1.248175 7.06177,4.002687 11.49536,8.598025 0,0 0,0 0,0 z"
     id="path210"
     style="fill:#ff0000;fill-opacity:1;fill-rule:nonzero;stroke:none"
     inkscape:connector-curvature="0" /><path
     d="m 279.41021,90.02143 c 1.38916,-1.583863 2.81311,-3.076775 4.05274,-4.190062 0.75011,-0.673825 1.35497,-1.201175 1.71447,-1.489263 0.0842,0.392463 0.16785,0.989388 0.25024,1.745 0.14039,1.304325 0.19044,2.937012 0.15199,4.75525 -1.06813,-0.23865 -2.21803,-0.425412 -3.44971,-0.551762 -0.92895,-0.09588 -1.83533,-0.185538 -2.71973,-0.269163 0,0 0,0 0,0 z"
     id="path212"
     style="fill:#ffffff;fill-opacity:1;fill-rule:nonzero;stroke:none"
     inkscape:connector-curvature="0" /><path
     d="m 266.42742,88.961255 c 0.75379,-1.74745 1.54296,-3.376488 2.27905,-4.619162 0.35095,-0.5896 0.63294,-1.060776 0.81788,-1.359251 0.22887,0.379026 0.53283,0.986938 0.8905,1.766363 0.57312,1.257937 1.16638,2.855837 1.72912,4.654538 -0.90637,-0.07138 -1.79444,-0.139163 -2.66906,-0.205688 -1.03394,-0.07937 -2.04834,-0.158088 -3.04749,-0.2368 0,0 0,0 0,0 z"
     id="path214"
     style="fill:#ffffff;fill-opacity:1;fill-rule:nonzero;stroke:none"
     inkscape:connector-curvature="0" /><path
     d="m 254.85271,87.773505 c 0.78796,-1.853637 1.61866,-3.594362 2.39441,-4.911512 0.36621,-0.623763 0.66284,-1.118775 0.85328,-1.427613 0.25023,0.410775 0.58532,1.092537 0.97961,1.974488 0.61035,1.367812 1.23901,3.115249 1.82984,5.07385 -2.01905,-0.197738 -4.01918,-0.425413 -6.05714,-0.709213 0,0 0,0 0,0 z"
     id="path216"
     style="fill:#ffffff;fill-opacity:1;fill-rule:nonzero;stroke:none"
     inkscape:connector-curvature="0" /><path
     d="m 240.34587,84.804143 c 0.77394,-1.7981 1.58265,-3.462538 2.32666,-4.700938 0.32838,-0.546875 0.59205,-0.982662 0.76601,-1.264025 0.27098,0.4425 0.6372,1.195063 1.06383,2.1759 0.62257,1.428212 1.25915,3.239137 1.85486,5.251463 -1.91223,-0.414425 -3.90442,-0.895988 -6.01136,-1.4624 0,0 0,0 0,0 z"
     id="path218"
     style="fill:#ffffff;fill-opacity:1;fill-rule:nonzero;stroke:none"
     inkscape:connector-curvature="0" /><path
     d="m 230.94586,81.406317 c 1.16942,-1.448362 2.31322,-2.743537 3.28246,-3.655999 0.39918,-0.375988 0.72449,-0.679326 0.94605,-0.885625 0.11538,0.411375 0.24292,1.038825 0.37841,1.832887 0.22828,1.34155 0.38209,3.013913 0.46143,4.87 -0.4132,-0.123875 -0.82885,-0.252075 -1.25061,-0.3827 -1.29883,-0.40405 -2.56897,-1.010737 -3.81774,-1.778563 0,0 0,0 0,0 z"
     id="path220"
     style="fill:#ffffff;fill-opacity:1;fill-rule:nonzero;stroke:none"
     inkscape:connector-curvature="0" /><path
     d="m 133.35247,40.244205 c -2.33826,0.573737 -3.95507,2.23145 -3.62794,3.759162 0.33875,1.5686 2.60743,2.420038 5.05372,1.893313 1.05163,-0.22645 1.96961,-0.672613 2.64648,-1.2317 -0.0659,0.0165 -0.13183,0.03113 -0.19897,0.04575 -2.44506,0.527337 -4.71435,-0.324713 -5.0531,-1.893312 -0.19165,-0.894163 0.28259,-1.833501 1.17981,-2.57325 0,0 0,0 0,0 z m -45.748285,28.3606 c -2.907725,1.182862 -4.6576,3.669438 -3.90015,5.5365 0.759888,1.864625 3.75,2.4237 6.658938,1.239625 0.619499,-0.2533 1.186524,-0.563962 1.688837,-0.916137 -2.652587,0.806887 -5.205075,0.194087 -5.89905,-1.510013 -0.596312,-1.4679 0.3595,-3.319087 2.210088,-4.618525 -0.252688,0.07688 -0.505376,0.164788 -0.758663,0.26855 0,0 0,0 0,0 z M 107.5523,67.613592 c -3.49915,1.146238 -5.75318,3.906863 -5.0238,6.156013 0.7312,2.25525 4.19495,3.165275 7.70935,2.023925 0.92224,-0.298462 1.75781,-0.709238 2.47925,-1.195075 -0.0113,0.0037 -0.022,0.0075 -0.0311,0.01 -3.5144,1.141363 -6.97753,0.231325 -7.70873,-2.024525 -0.53955,-1.664437 0.55298,-3.607787 2.57507,-4.9701 0,0 0,0 0,0 z m -3.9386,-12.516475 c -3.08289,2.036738 -4.53064,5.309451 -3.22449,7.288813 1.30615,1.978762 4.88586,1.932375 7.96997,-0.104375 0.004,-0.0025 0.008,-0.005 0.0128,-0.0087 -2.34314,0.7489 -4.56482,0.395513 -5.53405,-1.072387 -1.30556,-1.976313 0.13671,-5.242925 3.20861,-7.27905 -0.81115,0.260012 -1.63879,0.651237 -2.43287,1.175537 0,0 0,0 0,0 z m 17.2815,-4.945075 c -3.08411,2.036138 -4.53248,5.309451 -3.22571,7.288825 1.30676,1.978763 4.88647,1.932375 7.96936,-0.104374 0.005,-0.0012 0.007,-0.005 0.0125,-0.0075 -2.34193,0.748912 -4.5636,0.395512 -5.53284,-1.0736 -1.30432,-1.9751 0.13671,-5.2417 3.20984,-7.279051 -0.8136,0.26 -1.64001,0.651238 -2.43286,1.176138 0,0 0,0 0,0 z m 5.5365,14.645388 c -3.46558,1.283575 -5.61768,4.144287 -4.7937,6.368413 0.82275,2.2229 4.32067,2.9895 7.78442,1.705325 0.7666,-0.285038 1.46973,-0.64515 2.09045,-1.059576 -3.34533,1.103513 -6.63208,0.314325 -7.42676,-1.832275 -0.64209,-1.730962 0.52124,-3.848262 2.70325,-5.3064 -0.11962,0.03963 -0.23926,0.08 -0.35766,0.1245 0,0 0,0 0,0 z m 11.56127,-14.86755 c -2.69165,0.815425 -4.52881,2.66235 -4.32861,4.594725 0.24475,2.3584 3.44178,3.970338 7.1167,3.588863 1.71204,-0.177 3.23303,-0.757438 4.34509,-1.564325 -0.59509,0.179437 -1.23108,0.30945 -1.89696,0.379025 -3.67433,0.381474 -6.87135,-1.231075 -7.1167,-3.589475 -0.13063,-1.25915 0.60668,-2.482913 1.88048,-3.408813 0,0 0,0 0,0 z m 11.89332,-11.922 c -2.69104,0.815437 -4.53003,2.662963 -4.32984,4.594725 0.24536,2.357788 3.44177,3.97095 7.1167,3.588875 1.71204,-0.177613 3.23425,-0.756838 4.3451,-1.56495 -0.59572,0.180663 -1.23048,0.310062 -1.89636,0.379037 -3.67494,0.382075 -6.87195,-1.231087 -7.11671,-3.588875 -0.13001,-1.259762 0.60669,-2.483512 1.88111,-3.408812 0,0 0,0 0,0 z m 8.62426,11.342775 c -2.83082,0.909425 -4.76684,2.822875 -4.67468,4.943238 0.12088,2.83325 3.8208,4.990849 8.2373,4.801025 2.1936,-0.09338 4.16016,-0.7489 5.57008,-1.732176 -0.95215,0.307 -2.00745,0.499876 -3.12195,0.547488 -4.41529,0.1892 -8.11646,-1.969 -8.23853,-4.802863 -0.0604,-1.426387 0.79711,-2.7594 2.22778,-3.756712 0,0 0,0 0,0 z m 10.77332,-15.156863 c -3.07435,1.016238 -5.1471,3.170775 -4.9115,5.418088 0.2954,2.822275 4.12293,4.747325 8.51868,4.2859 1.93847,-0.202638 3.67003,-0.836188 4.97802,-1.72425 -0.78491,0.260625 -1.63514,0.444337 -2.52991,0.538937 -4.39696,0.460825 -8.22265,-1.464225 -8.51868,-4.285887 -0.1654,-1.57715 0.80507,-3.107913 2.46339,-4.232788 0,0 0,0 0,0 z M 25.338563,88.44978 c -2.501226,0.6958 -4.219976,2.4237 -3.975838,4.155275 0.281375,1.979975 3.026125,3.239125 6.112062,2.802112 1.412963,-0.200187 2.658075,-0.72265 3.566901,-1.419062 -0.358288,0.0995 -0.731813,0.178212 -1.118776,0.233137 -3.08655,0.437625 -5.830699,-0.821525 -6.112062,-2.801512 -0.151975,-1.0736 0.451662,-2.144775 1.527713,-2.969963 0,0 0,0 0,0 z m 16.107174,-3.828737 c -2.105712,0.471799 -3.598025,1.879875 -3.399662,3.291624 0.2179,1.528325 2.333987,2.498775 4.716187,2.16125 1.213375,-0.170899 2.266238,-0.652462 2.979738,-1.282949 -0.172725,0.0385 -0.35095,0.072 -0.531012,0.097 -2.382201,0.337525 -4.4989,-0.634151 -4.716175,-2.161251 -0.1056,-0.749512 0.2655,-1.497187 0.950924,-2.105712 0,0 0,0 0,0 z M 53.891412,80.02693 c -3.245237,1.319575 -5.199587,4.09545 -4.352412,6.1792 0.847162,2.081287 4.182738,2.70385 7.428587,1.38305 0.639038,-0.260012 1.228026,-0.576787 1.755975,-0.933838 -3.015737,0.972901 -5.950312,0.299075 -6.737062,-1.634525 -0.679925,-1.672362 0.444337,-3.7915 2.594,-5.24475 -0.2301,0.07388 -0.4596,0.157476 -0.689088,0.250863 0,0 0,0 0,0 z"
     id="path222"
     style="fill:#000000;fill-opacity:1;fill-rule:evenodd;stroke:none"
     inkscape:connector-curvature="0" /></svg>