<?xml version="1.0" encoding="UTF-8" standalone="no"?>
<!-- Created with Inkscape (http://www.inkscape.org/) -->

<svg
   xmlns:dc="http://purl.org/dc/elements/1.1/"
   xmlns:cc="http://creativecommons.org/ns#"
   xmlns:rdf="http://www.w3.org/1999/02/22-rdf-syntax-ns#"
   xmlns:svg="http://www.w3.org/2000/svg"
   xmlns="http://www.w3.org/2000/svg"
   version="1.1"
   width="117.77892"
   height="79.167725"
   id="svg3863">
  <defs
     id="defs3865" />
  <metadata
     id="metadata3868">
    <rdf:RDF>
      <cc:Work
         rdf:about="">
        <dc:format>image/svg+xml</dc:format>
        <dc:type
           rdf:resource="http://purl.org/dc/dcmitype/StillImage" />
        <dc:title></dc:title>
      </cc:Work>
    </rdf:RDF>
  </metadata>
  <g
     transform="translate(-535.39626,-407.064)"
     id="layer1">
    <g
       transform="matrix(1.25,0,0,-1.25,42.734206,1334.064)"
       id="g3859">
      <path
         d="m 426.74097,688.23258 c -6.67627,1.84961 -24.36914,8.73145 -26.5039,18.3789 -0.0171,0.0781 -0.0498,0.19336 -0.0732,0.27051 -0.0537,0.17188 -1.27246,4.27637 1.96289,9.44629 3.86866,6.18457 14.47168,14.47266 43.01416,18.83594 0.0322,0.005 0.0674,0.0107 0.0986,0.0176 0.18359,0.0342 18.46972,3.33203 29.26367,-5.76075 5.48926,-4.62401 8.20215,-11.82812 8.06201,-21.40917 -0.003,-0.084 -0.42969,-11.37696 -9.9502,-18.30958 -9.6582,-7.03417 -25.09277,-7.52832 -45.87402,-1.46971 0,0 0,0 0,0 z m 17.46777,52.63867 c -24.83349,-3.80566 -40.6958,-11.11621 -47.14453,-21.7334 -2.354,-3.87695 -2.93457,-7.44336 -2.93457,-10.01758 0,-2.2666 0.44532,-3.74902 0.53076,-4.01465 3.56348,-14.83789 29.39795,-22.13086 30.50245,-22.43554 22.60986,-6.59278 39.7622,-5.78223 50.94091,2.41992 11.80909,8.66309 12.23096,22.24512 12.24317,22.81836 0.16699,11.43262 -3.24561,20.1582 -10.1416,25.95508 -12.81397,10.76953 -32.84424,7.22363 -33.99659,7.00781 0,0 0,0 0,0 z"
         id="path504"
         style="fill:#231f20;fill-opacity:1;fill-rule:nonzero;stroke:none" />
      <path
         d="m 403.19019,711.44449 c 0,0 5.05322,13.47559 20.21338,14.73926 0,0 -16.00195,-7.15918 -13.89649,-14.73926 0,0 -6.31689,0 -6.31689,0 0,0 0,0 0,0 z"
         id="path506"
         style="fill:#231f20;fill-opacity:1;fill-rule:nonzero;stroke:none" />
    </g>
  </g>
</svg>
