<?xml version="1.0" encoding="utf-8" ?>
<!DOCTYPE svg PUBLIC "-//W3C//DTD SVG 1.1//EN" "http://www.w3.org/Graphics/SVG/1.1/DTD/svg11.dtd">
<svg height="1116" version="1.1" width="772" xmlns="http://www.w3.org/2000/svg">
<rect fill="#ffffff" height="232" stroke="#ffffff" stroke-width="1" width="218" x="398" y="14"/>
<rect fill="none" height="232" stroke="#000000" stroke-width="1" width="218" x="398" y="14"/>
<text font-family="Dialog" font-size="12" x="488" y="27">
Player</text>
<rect fill="#000000" height="1" stroke="#000000" stroke-width="1" width="218" x="398" y="37"/>
<text font-family="Dialog" font-size="12" x="402" y="51">
name : String</text>
<text font-family="Dialog" font-size="12" x="402" y="67">
avatar : Avatar</text>
<text font-family="Dialog" font-size="12" x="402" y="83">
settings : Settings</text>
<text font-family="Dialog" font-size="12" x="402" y="99">
progress</text>
<rect fill="#000000" height="1" stroke="#000000" stroke-width="1" width="218" x="398" y="109"/>
<text font-family="Dialog" font-size="12" x="402" y="123">
setName(name : String)</text>
<text font-family="Dialog" font-size="12" x="402" y="139">
getName() : String</text>
<text font-family="Dialog" font-size="12" x="402" y="155">
setAvatar(avatar : Avatar)</text>
<text font-family="Dialog" font-size="12" x="402" y="171">
getAvatar() : Avatar</text>
<text font-family="Dialog" font-size="12" x="402" y="187">
setSettings(settings : Settings)</text>
<text font-family="Dialog" font-size="12" x="402" y="203">
getSettings() : Settings</text>
<text font-family="Dialog" font-size="12" x="402" y="219">
setProgress(progress)</text>
<text font-family="Dialog" font-size="12" x="402" y="235">
getProgress()</text>
<rect fill="#ffffff" height="232" stroke="#ffffff" stroke-width="1" width="299" x="14" y="22"/>
<rect fill="none" height="232" stroke="#000000" stroke-width="1" width="299" x="14" y="22"/>
<text font-family="Dialog" font-size="12" x="137" y="35">
Settings</text>
<rect fill="#000000" height="1" stroke="#000000" stroke-width="1" width="299" x="14" y="45"/>
<text font-family="Dialog" font-size="12" x="18" y="59">
zoomButtonsEnabled : Boolean</text>
<text font-family="Dialog" font-size="12" x="18" y="75">
redGreenModeEnabled : Boolean</text>
<text font-family="Dialog" font-size="12" x="18" y="91">
effectSound : Integer</text>
<text font-family="Dialog" font-size="12" x="18" y="107">
musicVolume : Integer</text>
<rect fill="#000000" height="1" stroke="#000000" stroke-width="1" width="299" x="14" y="117"/>
<text font-family="Dialog" font-size="12" x="18" y="131">
setZoomButtonsEnabled(enabled : Boolean)</text>
<text font-family="Dialog" font-size="12" x="18" y="147">
areZoomButtonsEnabled() : Boolean</text>
<text font-family="Dialog" font-size="12" x="18" y="163">
setRedGreenModeEnabled(enabled : Boolean)</text>
<text font-family="Dialog" font-size="12" x="18" y="179">
isRedGreenModeEnabled() : Boolean</text>
<text font-family="Dialog" font-size="12" x="18" y="195">
setEffectVolume(volume : Integer)</text>
<text font-family="Dialog" font-size="12" x="18" y="211">
getEffectVolume() : Integer</text>
<text font-family="Dialog" font-size="12" x="18" y="227">
setMusicVolume(volume : Integer)</text>
<text font-family="Dialog" font-size="12" x="18" y="243">
getMusicVolume() : Integer</text>
<polyline fill="none" points="398,78 312,78" stroke="#000000" stroke-width="1"/>
<polygon fill="#000000" points="398,78 388,83 378,78 388,73" stroke="#000000" stroke-width="1"/>
<polygon fill="none" points="398,78 388,83 378,78 388,73" stroke="#000000" stroke-width="1"/>
<rect fill="#ffffff" height="88" stroke="#ffffff" stroke-width="1" width="104" x="654" y="118"/>
<rect fill="none" height="88" stroke="#000000" stroke-width="1" width="104" x="654" y="118"/>
<text font-family="Dialog" font-size="12" x="686" y="131">
Avatar</text>
<rect fill="#000000" height="1" stroke="#000000" stroke-width="1" width="104" x="654" y="141"/>
<rect fill="#000000" height="1" stroke="#000000" stroke-width="1" width="104" x="654" y="173"/>
<polyline fill="none" points="615,149 654,149" stroke="#000000" stroke-width="1"/>
<polygon fill="#000000" points="615,149 625,144 635,149 625,154" stroke="#000000" stroke-width="1"/>
<polygon fill="none" points="615,149 625,144 635,149 625,154" stroke="#000000" stroke-width="1"/>
<rect fill="#ffffff" height="536" stroke="#ffffff" stroke-width="1" width="326" x="14" y="566"/>
<rect fill="none" height="536" stroke="#000000" stroke-width="1" width="326" x="14" y="566"/>
<text font-family="Dialog" font-size="12" x="109" y="579">
AchievementProgress</text>
<rect fill="#000000" height="1" stroke="#000000" stroke-width="1" width="326" x="14" y="589"/>
<text font-family="Dialog" font-size="12" x="18" y="603">
timePlayed : Integer</text>
<text font-family="Dialog" font-size="12" x="18" y="619">
levelSolved : Integer</text>
<text font-family="Dialog" font-size="12" x="18" y="635">
alligatorsBorn : Integer</text>
<text font-family="Dialog" font-size="12" x="18" y="651">
alligatorsDead : Integer</text>
<text font-family="Dialog" font-size="12" x="18" y="667">
levelSolvedSession : Integer</text>
<text font-family="Dialog" font-size="12" x="18" y="683">
alligatorsBornSession : Integer</text>
<text font-family="Dialog" font-size="12" x="18" y="699">
alligatorsDeadSession : Integer</text>
<text font-family="Dialog" font-size="12" x="18" y="715">
maxRowsLevel : Integer</text>
<text font-family="Dialog" font-size="12" x="18" y="731">
maxColumsLevel : Integer</text>
<text font-family="Dialog" font-size="12" x="18" y="747">
nonTerminating : Boolean</text>
<text font-family="Dialog" font-size="12" x="18" y="763">
solvedWithoutHints : Boolean</text>
<rect fill="#000000" height="1" stroke="#000000" stroke-width="1" width="326" x="14" y="773"/>
<text font-family="Dialog" font-size="12" x="18" y="787">
setTimePlayed(time : Integer)</text>
<text font-family="Dialog" font-size="12" x="18" y="803">
getTimePlayed() : Integer</text>
<text font-family="Dialog" font-size="12" x="18" y="819">
setLevelSolved(levelSolved : Integer)</text>
<text font-family="Dialog" font-size="12" x="18" y="835">
getLevelSolved() : Integer</text>
<text font-family="Dialog" font-size="12" x="18" y="851">
setAlligatorsBorn(aliigatorsBorn : Integer)</text>
<text font-family="Dialog" font-size="12" x="18" y="867">
getAlligatorsBorn() : Integer</text>
<text font-family="Dialog" font-size="12" x="18" y="883">
setAlligatorsDead(aliigatorsDead : Integer)</text>
<text font-family="Dialog" font-size="12" x="18" y="899">
getAlligatorsDead() : Integer</text>
<text font-family="Dialog" font-size="12" x="18" y="915">
setAlligatorsBornSession(aliigatorsBorn : Integer)</text>
<text font-family="Dialog" font-size="12" x="18" y="931">
getAlligatorsBornSession() : Integer</text>
<text font-family="Dialog" font-size="12" x="18" y="947">
setAlligatorsDeadSession(aliigatorsDead : Integer)</text>
<text font-family="Dialog" font-size="12" x="18" y="963">
getAlligatorsDeadSession() : Integer</text>
<text font-family="Dialog" font-size="12" x="18" y="979">
setMaxRowsLevel(maxRows : Integer)</text>
<text font-family="Dialog" font-size="12" x="18" y="995">
getMaxRowsLevel() : Integer</text>
<text font-family="Dialog" font-size="12" x="18" y="1011">
setMaxColumsLevel(maxColums : Integer)</text>
<text font-family="Dialog" font-size="12" x="18" y="1027">
getMaxColumsLevel() : Integer</text>
<text font-family="Dialog" font-size="12" x="18" y="1043">
setNonTerminating(nonTerminate : Boolean)</text>
<text font-family="Dialog" font-size="12" x="18" y="1059">
getNonTerminate() : Boolean</text>
<text font-family="Dialog" font-size="12" x="18" y="1075">
setSolvedWithoutHints(solved : Boolean)</text>
<text font-family="Dialog" font-size="12" x="18" y="1091">
getSolvedWithoutHints() : Boolean</text>
<rect fill="#ffffff" height="200" stroke="#ffffff" stroke-width="1" width="306" x="382" y="694"/>
<rect fill="none" height="200" stroke="#000000" stroke-width="1" width="306" x="382" y="694"/>
<text font-family="Dialog" font-size="12" font-style="italic" x="495" y="707">
Achievement</text>
<rect fill="#000000" height="1" stroke="#000000" stroke-width="1" width="306" x="382" y="717"/>
<text font-family="Dialog" font-size="12" x="386" y="731">
name : String</text>
<text font-family="Dialog" font-size="12" x="386" y="747">
description : String</text>
<text font-family="Dialog" font-size="12" x="386" y="763">
icon : Icon</text>
<rect fill="#000000" height="1" stroke="#000000" stroke-width="1" width="306" x="382" y="773"/>
<text font-family="Dialog" font-size="12" font-style="italic" x="386" y="787">
requirementsMet(progress) : Boolean</text>
<text font-family="Dialog" font-size="12" x="386" y="803">
setName(name : String)</text>
<text font-family="Dialog" font-size="12" x="386" y="819">
getName() : String</text>
<text font-family="Dialog" font-size="12" x="386" y="835">
setDescription(description : String)</text>
<text font-family="Dialog" font-size="12" x="386" y="851">
getDescription() : String</text>
<text font-family="Dialog" font-size="12" x="386" y="867">
setIcon(icon : Icon)</text>
<text font-family="Dialog" font-size="12" x="386" y="883">
getIcon() : Icon</text>
<rect fill="#ffffff" height="136" stroke="#ffffff" stroke-width="1" width="290" x="454" y="510"/>
<rect fill="none" height="136" stroke="#000000" stroke-width="1" width="290" x="454" y="510"/>
<text font-family="Dialog" font-size="12" x="538" y="523">
AchievementStatus</text>
<rect fill="#000000" height="1" stroke="#000000" stroke-width="1" width="290" x="454" y="533"/>
<text font-family="Dialog" font-size="12" x="458" y="547">
unlocked : Boolean</text>
<text font-family="Dialog" font-size="12" x="458" y="563">
achievement : Achievement</text>
<rect fill="#000000" height="1" stroke="#000000" stroke-width="1" width="290" x="454" y="573"/>
<text font-family="Dialog" font-size="12" x="458" y="587">
setUnlocked(unlocked : Boolean)</text>
<text font-family="Dialog" font-size="12" x="458" y="603">
getUnlocked() : Boolean</text>
<text font-family="Dialog" font-size="12" x="458" y="619">
setAchievement(achievement : Achievement)</text>
<text font-family="Dialog" font-size="12" x="458" y="635">
getAchievement() : Achievement</text>
<rect fill="#ffffff" height="66" stroke="#ffffff" stroke-width="1" width="66" x="446" y="966"/>
<rect fill="none" height="66" stroke="#000000" stroke-width="1" width="66" x="446" y="966"/>
<text font-family="Dialog" font-size="12" x="466" y="979">
Icon</text>
<rect fill="#000000" height="1" stroke="#000000" stroke-width="1" width="66" x="446" y="989"/>
<rect fill="#000000" height="1" stroke="#000000" stroke-width="1" width="66" x="446" y="1010"/>
<polyline fill="none" points="486,893 486,966" stroke="#000000" stroke-width="1"/>
<polygon fill="#000000" points="486,893 491,903 486,913 481,903" stroke="#000000" stroke-width="1"/>
<polygon fill="none" points="486,893 491,903 486,913 481,903" stroke="#000000" stroke-width="1"/>
<polyline fill="none" points="542,645 542,694" stroke="#000000" stroke-width="1"/>
<polygon fill="#000000" points="542,645 547,655 542,665 537,655" stroke="#000000" stroke-width="1"/>
<polygon fill="none" points="542,645 547,655 542,665 537,655" stroke="#000000" stroke-width="1"/>
<rect fill="#ffffff" height="184" stroke="#ffffff" stroke-width="1" width="286" x="14" y="262"/>
<rect fill="none" height="184" stroke="#000000" stroke-width="1" width="286" x="14" y="262"/>
<text font-family="Dialog" font-size="12" x="124" y="275">
LevelState</text>
<rect fill="#000000" height="1" stroke="#000000" stroke-width="1" width="286" x="14" y="285"/>
<text font-family="Dialog" font-size="12" x="18" y="299">
levelSolved : Boolean</text>
<text font-family="Dialog" font-size="12" x="18" y="315">
currentLambdaTerm : LambdaTerm</text>
<text font-family="Dialog" font-size="12" x="18" y="331">
lastLambdaTerms : LambdaTerm</text>
<rect fill="#000000" height="1" stroke="#000000" stroke-width="1" width="286" x="14" y="341"/>
<text font-family="Dialog" font-size="12" x="18" y="355">
setLevelSolved(solved : Boolean)</text>
<text font-family="Dialog" font-size="12" x="18" y="371">
getLevelSolved() : Boolean</text>
<text font-family="Dialog" font-size="12" x="18" y="387">
setCurrentLambdaTerm(term : LambdaTerm)</text>
<text font-family="Dialog" font-size="12" x="18" y="403">
getCurrentLambdaTerm() : LambdaTerm</text>
<text font-family="Dialog" font-size="12" x="18" y="419">
setLastLambdaTerm(term : LambdaTerm)</text>
<text font-family="Dialog" font-size="12" x="18" y="435">
getLastLambdaTerm() : LambdaTerm</text>
<rect fill="#ffffff" height="69" stroke="#ffffff" stroke-width="1" width="152" x="14" y="478"/>
<rect fill="none" height="69" stroke="#000000" stroke-width="1" width="152" x="14" y="478"/>
<text font-family="Dialog" font-size="12" x="50" y="491">
LambdaTerm</text>
<rect fill="#000000" height="1" stroke="#000000" stroke-width="1" width="152" x="14" y="501"/>
<rect fill="#000000" height="1" stroke="#000000" stroke-width="1" width="152" x="14" y="523"/>
<polyline fill="none" points="118,445 118,478" stroke="#000000" stroke-width="1"/>
<polygon fill="#000000" points="118,445 123,455 118,465 113,455" stroke="#000000" stroke-width="1"/>
<polygon fill="none" points="118,445 123,455 118,465 113,455" stroke="#000000" stroke-width="1"/>
<text font-family="Dialog" font-size="12" x="128" y="468">
0..*</text>
<rect fill="#ffffff" height="184" stroke="#ffffff" stroke-width="1" width="378" x="374" y="270"/>
<rect fill="none" height="184" stroke="#000000" stroke-width="1" width="378" x="374" y="270"/>
<text font-family="Dialog" font-size="12" x="535" y="283">
Progress</text>
<rect fill="#000000" height="1" stroke="#000000" stroke-width="1" width="378" x="374" y="293"/>
<text font-family="Dialog" font-size="12" x="378" y="307">
achievementProgress : AchievementProgress</text>
<text font-family="Dialog" font-size="12" x="378" y="323">
achievements : AchievementStatus</text>
<text font-family="Dialog" font-size="12" x="378" y="339">
levelProgress : LevelState</text>
<rect fill="#000000" height="1" stroke="#000000" stroke-width="1" width="378" x="374" y="349"/>
<text font-family="Dialog" font-size="12" x="378" y="363">
setAchievementProgress(progress : AchievementProgress)</text>
<text font-family="Dialog" font-size="12" x="378" y="379">
getAchievementProgress() : AchievementProgress</text>
<text font-family="Dialog" font-size="12" x="378" y="395">
setAchievements(achievements : AchievementStatus)</text>
<text font-family="Dialog" font-size="12" x="378" y="411">
getAchievements() : AchievementStatus</text>
<text font-family="Dialog" font-size="12" x="378" y="427">
setLevelProgress(progress : LevelState)</text>
<text font-family="Dialog" font-size="12" x="378" y="443">
getLevelProgress() : LevelState</text>
<polyline fill="none" points="582,245 582,270" stroke="#000000" stroke-width="1"/>
<polygon fill="#000000" points="582,245 587,255 582,265 577,255" stroke="#000000" stroke-width="1"/>
<polygon fill="none" points="582,245 587,255 582,265 577,255" stroke="#000000" stroke-width="1"/>
<polyline fill="none" points="374,445 299,445" stroke="#000000" stroke-width="1"/>
<polygon fill="#000000" points="374,445 364,450 354,445 364,440" stroke="#000000" stroke-width="1"/>
<polygon fill="none" points="374,445 364,450 354,445 364,440" stroke="#000000" stroke-width="1"/>
<text font-family="Dialog" font-size="12" x="298" y="437">
1..*</text>
<polyline fill="none" points="398,453 398,638 339,638" stroke="#000000" stroke-width="1"/>
<polygon fill="#000000" points="398,453 403,463 398,473 393,463" stroke="#000000" stroke-width="1"/>
<polygon fill="none" points="398,453 403,463 398,473 393,463" stroke="#000000" stroke-width="1"/>
<polyline fill="none" points="582,453 582,510" stroke="#000000" stroke-width="1"/>
<polygon fill="#000000" points="582,453 587,463 582,473 577,463" stroke="#000000" stroke-width="1"/>
<polygon fill="none" points="582,453 587,463 582,473 577,463" stroke="#000000" stroke-width="1"/>
<text font-family="Dialog" font-size="12" x="588" y="493">
1..*</text>
</svg>
